<?xml version="1.0" encoding="UTF-8"?>
<svg xmlns="http://www.w3.org/2000/svg" width="1135" height="2334" viewBox="0 0 1135 2334">
  <defs>
      <marker id="arrow-2dd4bf" viewBox="0 0 10 10" refX="10" refY="5" markerWidth="8" markerHeight="8" orient="auto-start-reverse">
        <path d="M 0 0 L 10 5 L 0 10 z" fill="#2dd4bf"/>
      </marker>
    
      <marker id="arrow-ef4444" viewBox="0 0 10 10" refX="10" refY="5" markerWidth="8" markerHeight="8" orient="auto-start-reverse">
        <path d="M 0 0 L 10 5 L 0 10 z" fill="#ef4444"/>
      </marker>
    
      <marker id="arrow-22c55e" viewBox="0 0 10 10" refX="10" refY="5" markerWidth="8" markerHeight="8" orient="auto-start-reverse">
        <path d="M 0 0 L 10 5 L 0 10 z" fill="#22c55e"/>
      </marker>
    
      <marker id="arrow-f59e0b" viewBox="0 0 10 10" refX="10" refY="5" markerWidth="8" markerHeight="8" orient="auto-start-reverse">
        <path d="M 0 0 L 10 5 L 0 10 z" fill="#f59e0b"/>
      </marker>
    </defs>
  <rect width="100%" height="100%" fill="#0a0a0f"/>
  <text x="567.5" y="30" text-anchor="middle" fill="#71717a" font-size="14" font-weight="700" font-family="system-ui, sans-serif">CURRENT: nodes 240×70, decisions 52×52, font 10px, spacing 60/80, DPI 72</text>
  <path d="M 688 104 L 688 184" fill="none" stroke="#2dd4bf" stroke-width="1.5" marker-end="url(#arrow-2dd4bf)" stroke-linejoin="round"/><path d="M 688 254 L 688 334" fill="none" stroke="#2dd4bf" stroke-width="1.5" marker-end="url(#arrow-2dd4bf)" stroke-linejoin="round"/><path d="M 714 360 L 746 360 Q 754 360 753.9957219257453 367.99999885612993 L 753 2230" fill="none" stroke="#ef4444" stroke-width="1.5" marker-end="url(#arrow-ef4444)" stroke-linejoin="round"/>
        <rect x="751.8" y="382" width="24.4" height="16" rx="4" fill="#18181b" stroke="#ef4444" stroke-width="0.5"/>
        <text x="764" y="392.8" text-anchor="middle" fill="#ef4444" font-size="8" font-weight="500" font-family="system-ui, sans-serif">No</text>
      <path d="M 662 360 L 611 360 Q 603 360 603 368 L 603 466" fill="none" stroke="#22c55e" stroke-width="1.5" marker-end="url(#arrow-22c55e)" stroke-linejoin="round"/>
        <rect x="597.2" y="382" width="29.6" height="16" rx="4" fill="#18181b" stroke="#22c55e" stroke-width="0.5"/>
        <text x="612" y="392.8" text-anchor="middle" fill="#22c55e" font-size="8" font-weight="500" font-family="system-ui, sans-serif">Yes</text>
      <path d="M 603 536 L 603 616" fill="none" stroke="#2dd4bf" stroke-width="1.5" marker-end="url(#arrow-2dd4bf)" stroke-linejoin="round"/><path d="M 603 686 L 603 766" fill="none" stroke="#2dd4bf" stroke-width="1.5" marker-end="url(#arrow-2dd4bf)" stroke-linejoin="round"/><path d="M 629 792 L 745 792 Q 753 792 753 800 L 753 898" fill="none" stroke="#22c55e" stroke-width="1.5" marker-end="url(#arrow-22c55e)" stroke-linejoin="round"/>
        <rect x="664.2" y="814" width="29.6" height="16" rx="4" fill="#18181b" stroke="#22c55e" stroke-width="0.5"/>
        <text x="679" y="824.8" text-anchor="middle" fill="#22c55e" font-size="8" font-weight="500" font-family="system-ui, sans-serif">Yes</text>
      <path d="M 753 968 L 753 1048" fill="none" stroke="#2dd4bf" stroke-width="1.5" marker-end="url(#arrow-2dd4bf)" stroke-linejoin="round"/><path d="M 753 1118 L 753 1198" fill="none" stroke="#2dd4bf" stroke-width="1.5" marker-end="url(#arrow-2dd4bf)" stroke-linejoin="round"/><path d="M 779 1224 L 811 1224 Q 819 1224 819 1232 L 819 1312 Q 819 1320 811.0902759662018 1321.198443035424 L 753 1330" fill="none" stroke="#f59e0b" stroke-width="1.5" marker-end="url(#arrow-f59e0b)" stroke-linejoin="round"/>
        <rect x="790.8" y="1246" width="76.4" height="16" rx="4" fill="#18181b" stroke="#f59e0b" stroke-width="0.5"/>
        <text x="829" y="1256.8" text-anchor="middle" fill="#f59e0b" font-size="8" font-weight="500" font-family="system-ui, sans-serif">Needs review</text>
      <path d="M 753 1400 L 753 1489" fill="none" stroke="#2dd4bf" stroke-width="1.5" marker-end="url(#arrow-2dd4bf)" stroke-linejoin="round"/><path d="M 727 1515 L 658 1515 Q 650 1515 650 1523 L 650 1630" fill="none" stroke="#22c55e" stroke-width="1.5" marker-end="url(#arrow-22c55e)" stroke-linejoin="round"/>
        <rect x="649.2" y="1537" width="55.6" height="16" rx="4" fill="#18181b" stroke="#22c55e" stroke-width="0.5"/>
        <text x="677" y="1547.8" text-anchor="middle" fill="#22c55e" font-size="8" font-weight="500" font-family="system-ui, sans-serif">Approved</text>
      <path d="M 779 1515 L 947 1515 Q 955 1515 955 1523 L 955 1930" fill="none" stroke="#ef4444" stroke-width="1.5" marker-end="url(#arrow-ef4444)" stroke-linejoin="round"/>
        <rect x="801.2" y="1537" width="55.6" height="16" rx="4" fill="#18181b" stroke="#ef4444" stroke-width="0.5"/>
        <text x="829" y="1547.8" text-anchor="middle" fill="#ef4444" font-size="8" font-weight="500" font-family="system-ui, sans-serif">Rejected</text>
      <path d="M 650 1700 L 650 1780" fill="none" stroke="#2dd4bf" stroke-width="1.5" marker-end="url(#arrow-2dd4bf)" stroke-linejoin="round"/><path d="M 955 2000 L 955 2080" fill="none" stroke="#2dd4bf" stroke-width="1.5" marker-end="url(#arrow-2dd4bf)" stroke-linejoin="round"/><path d="M 650 1850 L 650 1939" fill="none" stroke="#2dd4bf" stroke-width="1.5" marker-end="url(#arrow-2dd4bf)" stroke-linejoin="round"/><path d="M 624 1965 L 488 1965 Q 480 1965 480 1973 L 480 2080" fill="none" stroke="#22c55e" stroke-width="1.5" marker-end="url(#arrow-22c55e)" stroke-linejoin="round"/>
        <rect x="559.2" y="1987" width="29.6" height="16" rx="4" fill="#18181b" stroke="#22c55e" stroke-width="0.5"/>
        <text x="574" y="1997.8" text-anchor="middle" fill="#22c55e" font-size="8" font-weight="500" font-family="system-ui, sans-serif">Yes</text>
      <path d="M 676 1965 L 743 1965 Q 751 1965 751 1973 L 751 2093" fill="none" stroke="#ef4444" stroke-width="1.5" marker-end="url(#arrow-ef4444)" stroke-linejoin="round"/>
        <rect x="713.8" y="1987" width="24.4" height="16" rx="4" fill="#18181b" stroke="#ef4444" stroke-width="0.5"/>
        <text x="726" y="1997.8" text-anchor="middle" fill="#ef4444" font-size="8" font-weight="500" font-family="system-ui, sans-serif">No</text>
      <path d="M 577 792 L 358 792 Q 350 792 350 800 L 350 1330" fill="none" stroke="#ef4444" stroke-width="1.5" marker-end="url(#arrow-ef4444)" stroke-linejoin="round"/>
        <rect x="514.8" y="814" width="24.4" height="16" rx="4" fill="#18181b" stroke="#ef4444" stroke-width="0.5"/>
        <text x="527" y="824.8" text-anchor="middle" fill="#ef4444" font-size="8" font-weight="500" font-family="system-ui, sans-serif">No</text>
      <path d="M 350 1400 L 350 1480" fill="none" stroke="#2dd4bf" stroke-width="1.5" marker-end="url(#arrow-2dd4bf)" stroke-linejoin="round"/><path d="M 350 1550 L 350 1630" fill="none" stroke="#2dd4bf" stroke-width="1.5" marker-end="url(#arrow-2dd4bf)" stroke-linejoin="round"/><path d="M 350 1700 L 350 1780" fill="none" stroke="#2dd4bf" stroke-width="1.5" marker-end="url(#arrow-2dd4bf)" stroke-linejoin="round"/><path d="M 350 1850 L 350 1939" fill="none" stroke="#2dd4bf" stroke-width="1.5" marker-end="url(#arrow-2dd4bf)" stroke-linejoin="round"/><path d="M 324 1965 L 188 1965 Q 180 1965 180 1973 L 180 2080" fill="none" stroke="#22c55e" stroke-width="1.5" marker-end="url(#arrow-22c55e)" stroke-linejoin="round"/>
        <rect x="259.2" y="1987" width="29.6" height="16" rx="4" fill="#18181b" stroke="#22c55e" stroke-width="0.5"/>
        <text x="274" y="1997.8" text-anchor="middle" fill="#22c55e" font-size="8" font-weight="500" font-family="system-ui, sans-serif">Yes</text>
      <path d="M 376 1965 L 743 1965 Q 751 1965 751 1973 L 751 2093" fill="none" stroke="#ef4444" stroke-width="1.5" marker-end="url(#arrow-ef4444)" stroke-linejoin="round"/>
        <rect x="413.8" y="1987" width="24.4" height="16" rx="4" fill="#18181b" stroke="#ef4444" stroke-width="0.5"/>
        <text x="426" y="1997.8" text-anchor="middle" fill="#ef4444" font-size="8" font-weight="500" font-family="system-ui, sans-serif">No</text>
      <path d="M 955 2150 L 955 2182 Q 955 2190 947 2190 L 761 2190 Q 753 2190 753 2198 L 753 2230" fill="none" stroke="#2dd4bf" stroke-width="1.5" marker-end="url(#arrow-2dd4bf)" stroke-linejoin="round"/><path d="M 480 2150 L 480 2182 Q 480 2190 488 2190 L 745 2190 Q 753 2190 753 2198 L 753 2230" fill="none" stroke="#2dd4bf" stroke-width="1.5" marker-end="url(#arrow-2dd4bf)" stroke-linejoin="round"/><path d="M 180 2150 L 180 2182 Q 180 2190 188 2190 L 745 2190 Q 753 2190 753 2198 L 753 2230" fill="none" stroke="#2dd4bf" stroke-width="1.5" marker-end="url(#arrow-2dd4bf)" stroke-linejoin="round"/>
  
      <circle cx="688" cy="82" r="18.04" fill="#059669" stroke="#34d399" stroke-width="2"/>
      <polygon points="683.5802,75.686 683.5802,88.314 694.314,82" fill="white"/>
    
    <rect x="568" y="184" width="240" height="70" rx="8" fill="#1e1e2e" stroke="#2dd4bf" stroke-width="1.5"/>
    <text x="688" y="202" text-anchor="middle" fill="#e4e4e7" font-size="10" font-weight="600" font-family="system-ui, sans-serif">Get Today&apos;s Birthday Events</text>
    
      <rect x="576" y="234" width="45.5" height="14" rx="3" fill="#374151"/>
      <text x="598.75" y="244.08" text-anchor="middle" fill="#9ca3af" font-size="7.5" font-family="system-ui, sans-serif">System</text>
    
        <rect x="625.5" y="234" width="129.5" height="14" rx="3" fill="#1e293b"/>
        <text x="690.25" y="244.08" text-anchor="middle" fill="#64748b" font-size="7.5" font-family="system-ui, sans-serif">Google Calendar (UiPa…</text>
      
  
      <g transform="translate(688, 360)">
        <rect x="-26" y="-26" width="52" height="52" rx="4" transform="rotate(45)" fill="#d97706" stroke="#fbbf24" stroke-width="1.5"/>
        <text x="0" y="-2.3" text-anchor="middle" fill="white" font-size="8" font-weight="600" font-family="system-ui, sans-serif">Any Birthdays Today?</text>
      </g>
    
      <circle cx="753" cy="2252" r="18.04" fill="#dc2626" stroke="#f87171" stroke-width="2"/>
      <rect x="744.882" y="2243.882" width="16.236" height="16.236" rx="2" fill="white"/>
    
    <rect x="483" y="466" width="240" height="70" rx="8" fill="#1e1e2e" stroke="#2dd4bf" stroke-width="1.5"/>
    <text x="603" y="484" text-anchor="middle" fill="#e4e4e7" font-size="10" font-weight="600" font-family="system-ui, sans-serif">For Each Birthday Person</text>
    
      <rect x="491" y="516" width="45.5" height="14" rx="3" fill="#374151"/>
      <text x="513.75" y="526.08" text-anchor="middle" fill="#9ca3af" font-size="7.5" font-family="system-ui, sans-serif">System</text>
    
        <rect x="540.5" y="516" width="77" height="14" rx="3" fill="#1e293b"/>
        <text x="579" y="526.08" text-anchor="middle" fill="#64748b" font-size="7.5" font-family="system-ui, sans-serif">Orchestrator</text>
      
  
    <rect x="483" y="616" width="240" height="70" rx="8" fill="#1e1e2e" stroke="#2dd4bf" stroke-width="1.5"/>
    <text x="603" y="634" text-anchor="middle" fill="#e4e4e7" font-size="10" font-weight="600" font-family="system-ui, sans-serif">Lookup Contact by Full Name</text>
    
      <rect x="491" y="666" width="45.5" height="14" rx="3" fill="#374151"/>
      <text x="513.75" y="676.08" text-anchor="middle" fill="#9ca3af" font-size="7.5" font-family="system-ui, sans-serif">System</text>
    
        <rect x="540.5" y="666" width="129.5" height="14" rx="3" fill="#1e293b"/>
        <text x="605.25" y="676.08" text-anchor="middle" fill="#64748b" font-size="7.5" font-family="system-ui, sans-serif">Google Contacts (UiPa…</text>
      
  
      <g transform="translate(603, 792)">
        <rect x="-26" y="-26" width="52" height="52" rx="4" transform="rotate(45)" fill="#d97706" stroke="#fbbf24" stroke-width="1.5"/>
        <text x="0" y="-2.3" text-anchor="middle" fill="white" font-size="8" font-weight="600" font-family="system-ui, sans-serif">Email Available</text>
      </g>
    
    <rect x="633" y="898" width="240" height="70" rx="8" fill="#1e1e2e" stroke="#2dd4bf" stroke-width="1.5"/>
    <text x="753" y="916" text-anchor="middle" fill="#e4e4e7" font-size="10" font-weight="600" font-family="system-ui, sans-serif">Select Preferred Email</text>
    
      <rect x="641" y="948" width="45.5" height="14" rx="3" fill="#374151"/>
      <text x="663.75" y="958.08" text-anchor="middle" fill="#9ca3af" font-size="7.5" font-family="system-ui, sans-serif">System</text>
    
        <rect x="690.5" y="948" width="77" height="14" rx="3" fill="#1e293b"/>
        <text x="729" y="958.08" text-anchor="middle" fill="#64748b" font-size="7.5" font-family="system-ui, sans-serif">Orchestrator</text>
      
  
    <rect x="633" y="1048" width="240" height="70" rx="8" fill="#1e1e2e" stroke="#2dd4bf" stroke-width="1.5"/>
    <text x="753" y="1066" text-anchor="middle" fill="#e4e4e7" font-size="10" font-weight="600" font-family="system-ui, sans-serif">Generate Birthday Message in</text>
    
      <rect x="641" y="1098" width="45.5" height="14" rx="3" fill="#374151"/>
      <text x="663.75" y="1108.08" text-anchor="middle" fill="#9ca3af" font-size="7.5" font-family="system-ui, sans-serif">System</text>
    
        <rect x="690.5" y="1098" width="129.5" height="14" rx="3" fill="#1e293b"/>
        <text x="755.25" y="1108.08" text-anchor="middle" fill="#64748b" font-size="7.5" font-family="system-ui, sans-serif">UiPath GenAI Activiti…</text>
      
  
      <g transform="translate(753, 1224)">
        <rect x="-26" y="-26" width="52" height="52" rx="4" transform="rotate(45)" fill="#7c3aed" stroke="#a78bfa" stroke-width="1.5"/>
        <text x="0" y="-2.3" text-anchor="middle" fill="white" font-size="8" font-weight="600" font-family="system-ui, sans-serif">Message Policy Check</text>
      </g>
    
    <rect x="633" y="1330" width="240" height="70" rx="8" fill="#1e1e2e" stroke="#2dd4bf" stroke-width="1.5"/>
    <text x="753" y="1348" text-anchor="middle" fill="#e4e4e7" font-size="10" font-weight="600" font-family="system-ui, sans-serif">Create Human Review Task</text>
    
      <rect x="641" y="1380" width="45.5" height="14" rx="3" fill="#374151"/>
      <text x="663.75" y="1390.08" text-anchor="middle" fill="#9ca3af" font-size="7.5" font-family="system-ui, sans-serif">System</text>
    
        <rect x="690.5" y="1380" width="82.25" height="14" rx="3" fill="#1e293b"/>
        <text x="731.625" y="1390.08" text-anchor="middle" fill="#64748b" font-size="7.5" font-family="system-ui, sans-serif">Action Center</text>
      
  
      <g transform="translate(753, 1515)">
        <rect x="-26" y="-26" width="52" height="52" rx="4" transform="rotate(45)" fill="#d97706" stroke="#fbbf24" stroke-width="1.5"/>
        <text x="0" y="-2.3" text-anchor="middle" fill="white" font-size="8" font-weight="600" font-family="system-ui, sans-serif">Approved to Send?</text>
      </g>
    
    <rect x="530" y="1630" width="240" height="70" rx="8" fill="#1e1e2e" stroke="#2dd4bf" stroke-width="1.5"/>
    <text x="650" y="1648" text-anchor="middle" fill="#e4e4e7" font-size="10" font-weight="600" font-family="system-ui, sans-serif">Send Birthday Email</text>
    
      <rect x="538" y="1680" width="45.5" height="14" rx="3" fill="#374151"/>
      <text x="560.75" y="1690.08" text-anchor="middle" fill="#9ca3af" font-size="7.5" font-family="system-ui, sans-serif">System</text>
    
        <rect x="587.5" y="1680" width="129.5" height="14" rx="3" fill="#1e293b"/>
        <text x="652.25" y="1690.08" text-anchor="middle" fill="#64748b" font-size="7.5" font-family="system-ui, sans-serif">Gmail (Integration Se…</text>
      
  
    <rect x="835" y="1930" width="240" height="70" rx="8" fill="#1e1e2e" stroke="#2dd4bf" stroke-width="1.5"/>
    <text x="955" y="1948" text-anchor="middle" fill="#e4e4e7" font-size="10" font-weight="600" font-family="system-ui, sans-serif">Skip Send (Rejected)</text>
    
      <rect x="843" y="1980" width="45.5" height="14" rx="3" fill="#374151"/>
      <text x="865.75" y="1990.08" text-anchor="middle" fill="#9ca3af" font-size="7.5" font-family="system-ui, sans-serif">System</text>
    
        <rect x="892.5" y="1980" width="77" height="14" rx="3" fill="#1e293b"/>
        <text x="931" y="1990.08" text-anchor="middle" fill="#64748b" font-size="7.5" font-family="system-ui, sans-serif">Orchestrator</text>
      
  
    <rect x="530" y="1780" width="240" height="70" rx="8" fill="#1e1e2e" stroke="#2dd4bf" stroke-width="1.5"/>
    <text x="650" y="1798" text-anchor="middle" fill="#e4e4e7" font-size="10" font-weight="600" font-family="system-ui, sans-serif">Mark Person Processed</text>
    
      <rect x="538" y="1830" width="45.5" height="14" rx="3" fill="#374151"/>
      <text x="560.75" y="1840.08" text-anchor="middle" fill="#9ca3af" font-size="7.5" font-family="system-ui, sans-serif">System</text>
    
        <rect x="587.5" y="1830" width="77" height="14" rx="3" fill="#1e293b"/>
        <text x="626" y="1840.08" text-anchor="middle" fill="#64748b" font-size="7.5" font-family="system-ui, sans-serif">Data Service</text>
      
  
    <rect x="835" y="2080" width="240" height="70" rx="8" fill="#1e1e2e" stroke="#2dd4bf" stroke-width="1.5"/>
    <text x="955" y="2098" text-anchor="middle" fill="#e4e4e7" font-size="10" font-weight="600" font-family="system-ui, sans-serif">Mark Person Skipped</text>
    
      <rect x="843" y="2130" width="45.5" height="14" rx="3" fill="#374151"/>
      <text x="865.75" y="2140.08" text-anchor="middle" fill="#9ca3af" font-size="7.5" font-family="system-ui, sans-serif">System</text>
    
        <rect x="892.5" y="2130" width="77" height="14" rx="3" fill="#1e293b"/>
        <text x="931" y="2140.08" text-anchor="middle" fill="#64748b" font-size="7.5" font-family="system-ui, sans-serif">Data Service</text>
      
  
      <g transform="translate(650, 1965)">
        <rect x="-26" y="-26" width="52" height="52" rx="4" transform="rotate(45)" fill="#d97706" stroke="#fbbf24" stroke-width="1.5"/>
        <text x="0" y="-2.3" text-anchor="middle" fill="white" font-size="8" font-weight="600" font-family="system-ui, sans-serif">Next Birthday</text>
      </g>
    
    <rect x="360" y="2080" width="240" height="70" rx="8" fill="#1e1e2e" stroke="#2dd4bf" stroke-width="1.5"/>
    <text x="480" y="2098" text-anchor="middle" fill="#e4e4e7" font-size="10" font-weight="600" font-family="system-ui, sans-serif">Loop to Next Person</text>
    
      <rect x="368" y="2130" width="45.5" height="14" rx="3" fill="#374151"/>
      <text x="390.75" y="2140.08" text-anchor="middle" fill="#9ca3af" font-size="7.5" font-family="system-ui, sans-serif">System</text>
    
        <rect x="417.5" y="2130" width="77" height="14" rx="3" fill="#1e293b"/>
        <text x="456" y="2140.08" text-anchor="middle" fill="#64748b" font-size="7.5" font-family="system-ui, sans-serif">Orchestrator</text>
      
  
      <circle cx="751" cy="2115" r="18.04" fill="#dc2626" stroke="#f87171" stroke-width="2"/>
      <rect x="742.882" y="2106.882" width="16.236" height="16.236" rx="2" fill="white"/>
    
    <rect x="230" y="1330" width="240" height="70" rx="8" fill="#1e1e2e" stroke="#2dd4bf" stroke-width="1.5"/>
    <text x="350" y="1348" text-anchor="middle" fill="#e4e4e7" font-size="10" font-weight="600" font-family="system-ui, sans-serif">No Action (No Email Found)</text>
    
      <rect x="238" y="1380" width="45.5" height="14" rx="3" fill="#374151"/>
      <text x="260.75" y="1390.08" text-anchor="middle" fill="#9ca3af" font-size="7.5" font-family="system-ui, sans-serif">System</text>
    
        <rect x="287.5" y="1380" width="77" height="14" rx="3" fill="#1e293b"/>
        <text x="326" y="1390.08" text-anchor="middle" fill="#64748b" font-size="7.5" font-family="system-ui, sans-serif">Orchestrator</text>
      
  
    <rect x="230" y="1480" width="240" height="70" rx="8" fill="#1e1e2e" stroke="#2dd4bf" stroke-width="1.5"/>
    <text x="350" y="1498" text-anchor="middle" fill="#e4e4e7" font-size="10" font-weight="600" font-family="system-ui, sans-serif">Mark Missing Email</text>
    
      <rect x="238" y="1530" width="45.5" height="14" rx="3" fill="#374151"/>
      <text x="260.75" y="1540.08" text-anchor="middle" fill="#9ca3af" font-size="7.5" font-family="system-ui, sans-serif">System</text>
    
        <rect x="287.5" y="1530" width="77" height="14" rx="3" fill="#1e293b"/>
        <text x="326" y="1540.08" text-anchor="middle" fill="#64748b" font-size="7.5" font-family="system-ui, sans-serif">Data Service</text>
      
  
    <rect x="230" y="1630" width="240" height="70" rx="8" fill="#1e1e2e" stroke="#2dd4bf" stroke-width="1.5"/>
    <text x="350" y="1648" text-anchor="middle" fill="#e4e4e7" font-size="10" font-weight="600" font-family="system-ui, sans-serif">Return to Loop Control</text>
    
      <rect x="238" y="1680" width="45.5" height="14" rx="3" fill="#374151"/>
      <text x="260.75" y="1690.08" text-anchor="middle" fill="#9ca3af" font-size="7.5" font-family="system-ui, sans-serif">System</text>
    
        <rect x="287.5" y="1680" width="77" height="14" rx="3" fill="#1e293b"/>
        <text x="326" y="1690.08" text-anchor="middle" fill="#64748b" font-size="7.5" font-family="system-ui, sans-serif">Orchestrator</text>
      
  
    <rect x="230" y="1780" width="240" height="70" rx="8" fill="#1e1e2e" stroke="#2dd4bf" stroke-width="1.5"/>
    <text x="350" y="1798" text-anchor="middle" fill="#e4e4e7" font-size="10" font-weight="600" font-family="system-ui, sans-serif">Continue Loop Check</text>
    
      <rect x="238" y="1830" width="45.5" height="14" rx="3" fill="#374151"/>
      <text x="260.75" y="1840.08" text-anchor="middle" fill="#9ca3af" font-size="7.5" font-family="system-ui, sans-serif">System</text>
    
        <rect x="287.5" y="1830" width="77" height="14" rx="3" fill="#1e293b"/>
        <text x="326" y="1840.08" text-anchor="middle" fill="#64748b" font-size="7.5" font-family="system-ui, sans-serif">Orchestrator</text>
      
  
      <g transform="translate(350, 1965)">
        <rect x="-26" y="-26" width="52" height="52" rx="4" transform="rotate(45)" fill="#d97706" stroke="#fbbf24" stroke-width="1.5"/>
        <text x="0" y="-2.3" text-anchor="middle" fill="white" font-size="8" font-weight="600" font-family="system-ui, sans-serif">Next Birthday</text>
      </g>
    
    <rect x="60" y="2080" width="240" height="70" rx="8" fill="#1e1e2e" stroke="#2dd4bf" stroke-width="1.5"/>
    <text x="180" y="2098" text-anchor="middle" fill="#e4e4e7" font-size="10" font-weight="600" font-family="system-ui, sans-serif">Loop to Next (from missing</text>
    
      <rect x="68" y="2130" width="45.5" height="14" rx="3" fill="#374151"/>
      <text x="90.75" y="2140.08" text-anchor="middle" fill="#9ca3af" font-size="7.5" font-family="system-ui, sans-serif">System</text>
    
        <rect x="117.5" y="2130" width="77" height="14" rx="3" fill="#1e293b"/>
        <text x="156" y="2140.08" text-anchor="middle" fill="#64748b" font-size="7.5" font-family="system-ui, sans-serif">Orchestrator</text>
      
  
</svg>