<?xml version="1.0" encoding="UTF-8"?>
<svg xmlns="http://www.w3.org/2000/svg" width="1558.5" height="3564" viewBox="0 0 1558.5 3564">
  <defs>
      <marker id="arrow-2dd4bf" viewBox="0 0 10 10" refX="10" refY="5" markerWidth="10" markerHeight="10" orient="auto-start-reverse">
        <path d="M 0 0 L 10 5 L 0 10 z" fill="#2dd4bf"/>
      </marker>
    
      <marker id="arrow-ef4444" viewBox="0 0 10 10" refX="10" refY="5" markerWidth="10" markerHeight="10" orient="auto-start-reverse">
        <path d="M 0 0 L 10 5 L 0 10 z" fill="#ef4444"/>
      </marker>
    
      <marker id="arrow-22c55e" viewBox="0 0 10 10" refX="10" refY="5" markerWidth="10" markerHeight="10" orient="auto-start-reverse">
        <path d="M 0 0 L 10 5 L 0 10 z" fill="#22c55e"/>
      </marker>
    
      <marker id="arrow-f59e0b" viewBox="0 0 10 10" refX="10" refY="5" markerWidth="10" markerHeight="10" orient="auto-start-reverse">
        <path d="M 0 0 L 10 5 L 0 10 z" fill="#f59e0b"/>
      </marker>
    </defs>
  <rect width="100%" height="100%" fill="#0a0a0f"/>
  <text x="779.25" y="30" text-anchor="middle" fill="#71717a" font-size="16" font-weight="700" font-family="system-ui, sans-serif">IMPROVED: nodes 320×100, decisions 90×90, font 14px, spacing 100/130, DPI 144</text>
  <path d="M 952.5 122 L 952.5 252" fill="none" stroke="#2dd4bf" stroke-width="2" marker-end="url(#arrow-2dd4bf)" stroke-linejoin="round"/><path d="M 952.5 352 L 952.5 482" fill="none" stroke="#2dd4bf" stroke-width="2" marker-end="url(#arrow-2dd4bf)" stroke-linejoin="round"/><path d="M 984.3198051533947 527 L 1030.5 527 Q 1042.5 527 1042.5 539 L 1042.5 3442" fill="none" stroke="#ef4444" stroke-width="2" marker-end="url(#arrow-ef4444)" stroke-linejoin="round"/>
        <rect x="999.9099025766973" y="504" width="27" height="18" rx="4" fill="#18181b" stroke="#ef4444" stroke-width="0.5"/>
        <text x="1013.4099025766973" y="516.5" text-anchor="middle" fill="#ef4444" font-size="10" font-weight="500" font-family="system-ui, sans-serif">No</text>
      <path d="M 920.6801948466053 527 L 844.5 527 Q 832.5 527 832.5 539 L 832.5 702" fill="none" stroke="#22c55e" stroke-width="2" marker-end="url(#arrow-22c55e)" stroke-linejoin="round"/>
        <rect x="859.8400974233027" y="504" width="33.5" height="18" rx="4" fill="#18181b" stroke="#22c55e" stroke-width="0.5"/>
        <text x="876.5900974233027" y="516.5" text-anchor="middle" fill="#22c55e" font-size="10" font-weight="500" font-family="system-ui, sans-serif">Yes</text>
      <path d="M 832.5 802 L 832.5 932" fill="none" stroke="#2dd4bf" stroke-width="2" marker-end="url(#arrow-2dd4bf)" stroke-linejoin="round"/><path d="M 832.5 1032 L 832.5 1162" fill="none" stroke="#2dd4bf" stroke-width="2" marker-end="url(#arrow-2dd4bf)" stroke-linejoin="round"/><path d="M 800.6801948466053 1207 L 787.6801948466053 1207 Q 775.6801948466053 1207 775.6801948466053 1219 L 775.6801948466053 1355 Q 775.6801948466053 1367 787.6801948466053 1367 L 1035 1367 Q 1042.5 1367 1042.5 1374.5 L 1042.5 1382" fill="none" stroke="#22c55e" stroke-width="2" marker-end="url(#arrow-22c55e)" stroke-linejoin="round"/>
        <rect x="771.4301948466053" y="1184" width="33.5" height="18" rx="4" fill="#18181b" stroke="#22c55e" stroke-width="0.5"/>
        <text x="788.1801948466053" y="1196.5" text-anchor="middle" fill="#22c55e" font-size="10" font-weight="500" font-family="system-ui, sans-serif">Yes</text>
      <path d="M 1042.5 1482 L 1042.5 1612" fill="none" stroke="#2dd4bf" stroke-width="2" marker-end="url(#arrow-2dd4bf)" stroke-linejoin="round"/><path d="M 1042.5 1712 L 1042.5 1842" fill="none" stroke="#2dd4bf" stroke-width="2" marker-end="url(#arrow-2dd4bf)" stroke-linejoin="round"/><path d="M 1042.5 1918.8198051533946 L 1042.5 2062" fill="none" stroke="#f59e0b" stroke-width="2" marker-end="url(#arrow-f59e0b)" stroke-linejoin="round"/>
        <rect x="996.5" y="1981.4099025766973" width="92" height="18" rx="4" fill="#18181b" stroke="#f59e0b" stroke-width="0.5"/>
        <text x="1042.5" y="1993.9099025766973" text-anchor="middle" fill="#f59e0b" font-size="10" font-weight="500" font-family="system-ui, sans-serif">Needs review</text>
      <path d="M 1042.5 2162 L 1042.5 2297" fill="none" stroke="#2dd4bf" stroke-width="2" marker-end="url(#arrow-2dd4bf)" stroke-linejoin="round"/><path d="M 1010.6801948466053 2342 L 902 2342 Q 890 2342 890 2354 L 890 2522" fill="none" stroke="#22c55e" stroke-width="2" marker-end="url(#arrow-22c55e)" stroke-linejoin="round"/>
        <rect x="917.3400974233027" y="2319" width="66" height="18" rx="4" fill="#18181b" stroke="#22c55e" stroke-width="0.5"/>
        <text x="950.3400974233027" y="2331.5" text-anchor="middle" fill="#22c55e" font-size="10" font-weight="500" font-family="system-ui, sans-serif">Approved</text>
      <path d="M 1074.3198051533946 2342 L 1316.5 2342 Q 1328.5 2342 1328.5 2354 L 1328.5 2982" fill="none" stroke="#ef4444" stroke-width="2" marker-end="url(#arrow-ef4444)" stroke-linejoin="round"/>
        <rect x="1168.4099025766973" y="2319" width="66" height="18" rx="4" fill="#18181b" stroke="#ef4444" stroke-width="0.5"/>
        <text x="1201.4099025766973" y="2331.5" text-anchor="middle" fill="#ef4444" font-size="10" font-weight="500" font-family="system-ui, sans-serif">Rejected</text>
      <path d="M 890 2622 L 890 2752" fill="none" stroke="#2dd4bf" stroke-width="2" marker-end="url(#arrow-2dd4bf)" stroke-linejoin="round"/><path d="M 1328.5 3082 L 1328.5 3212" fill="none" stroke="#2dd4bf" stroke-width="2" marker-end="url(#arrow-2dd4bf)" stroke-linejoin="round"/><path d="M 890 2852 L 890 2987" fill="none" stroke="#2dd4bf" stroke-width="2" marker-end="url(#arrow-2dd4bf)" stroke-linejoin="round"/><path d="M 858.1801948466053 3032 L 662 3032 Q 650 3032 650 3044 L 650 3212" fill="none" stroke="#22c55e" stroke-width="2" marker-end="url(#arrow-22c55e)" stroke-linejoin="round"/>
        <rect x="737.3400974233027" y="3009" width="33.5" height="18" rx="4" fill="#18181b" stroke="#22c55e" stroke-width="0.5"/>
        <text x="754.0900974233027" y="3021.5" text-anchor="middle" fill="#22c55e" font-size="10" font-weight="500" font-family="system-ui, sans-serif">Yes</text>
      <path d="M 921.8198051533947 3032 L 1021 3032 Q 1033 3032 1033 3044 L 1033 3236" fill="none" stroke="#ef4444" stroke-width="2" marker-end="url(#arrow-ef4444)" stroke-linejoin="round"/>
        <rect x="963.9099025766973" y="3009" width="27" height="18" rx="4" fill="#18181b" stroke="#ef4444" stroke-width="0.5"/>
        <text x="977.4099025766973" y="3021.5" text-anchor="middle" fill="#ef4444" font-size="10" font-weight="500" font-family="system-ui, sans-serif">No</text>
      <path d="M 864.3198051533947 1207 L 877.3198051533947 1207 Q 889.3198051533947 1207 889.3198051533947 1219 L 889.3198051533947 2035 Q 889.3198051533947 2047 877.3198051533947 2047 L 477.5 2047 Q 470 2047 470 2054.5 L 470 2062" fill="none" stroke="#ef4444" stroke-width="2" marker-end="url(#arrow-ef4444)" stroke-linejoin="round"/>
        <rect x="863.3198051533947" y="1184" width="27" height="18" rx="4" fill="#18181b" stroke="#ef4444" stroke-width="0.5"/>
        <text x="876.8198051533947" y="1196.5" text-anchor="middle" fill="#ef4444" font-size="10" font-weight="500" font-family="system-ui, sans-serif">No</text>
      <path d="M 470 2162 L 470 2292" fill="none" stroke="#2dd4bf" stroke-width="2" marker-end="url(#arrow-2dd4bf)" stroke-linejoin="round"/><path d="M 470 2392 L 470 2522" fill="none" stroke="#2dd4bf" stroke-width="2" marker-end="url(#arrow-2dd4bf)" stroke-linejoin="round"/><path d="M 470 2622 L 470 2752" fill="none" stroke="#2dd4bf" stroke-width="2" marker-end="url(#arrow-2dd4bf)" stroke-linejoin="round"/><path d="M 470 2852 L 470 2987" fill="none" stroke="#2dd4bf" stroke-width="2" marker-end="url(#arrow-2dd4bf)" stroke-linejoin="round"/><path d="M 438.18019484660533 3032 L 242 3032 Q 230 3032 230 3044 L 230 3212" fill="none" stroke="#22c55e" stroke-width="2" marker-end="url(#arrow-22c55e)" stroke-linejoin="round"/>
        <rect x="317.34009742330267" y="3009" width="33.5" height="18" rx="4" fill="#18181b" stroke="#22c55e" stroke-width="0.5"/>
        <text x="334.09009742330267" y="3021.5" text-anchor="middle" fill="#22c55e" font-size="10" font-weight="500" font-family="system-ui, sans-serif">Yes</text>
      <path d="M 501.81980515339467 3032 L 1021 3032 Q 1033 3032 1033 3044 L 1033 3236" fill="none" stroke="#ef4444" stroke-width="2" marker-end="url(#arrow-ef4444)" stroke-linejoin="round"/>
        <rect x="753.9099025766973" y="3009" width="27" height="18" rx="4" fill="#18181b" stroke="#ef4444" stroke-width="0.5"/>
        <text x="767.4099025766973" y="3021.5" text-anchor="middle" fill="#ef4444" font-size="10" font-weight="500" font-family="system-ui, sans-serif">No</text>
      <path d="M 1328.5 3312 L 1328.5 3365 Q 1328.5 3377 1316.5 3377 L 1054.5 3377 Q 1042.5 3377 1042.5 3389 L 1042.5 3442" fill="none" stroke="#2dd4bf" stroke-width="2" marker-end="url(#arrow-2dd4bf)" stroke-linejoin="round"/><path d="M 650 3312 L 650 3365 Q 650 3377 662 3377 L 1030.5 3377 Q 1042.5 3377 1042.5 3389 L 1042.5 3442" fill="none" stroke="#2dd4bf" stroke-width="2" marker-end="url(#arrow-2dd4bf)" stroke-linejoin="round"/><path d="M 230 3312 L 230 3365 Q 230 3377 242 3377 L 1030.5 3377 Q 1042.5 3377 1042.5 3389 L 1042.5 3442" fill="none" stroke="#2dd4bf" stroke-width="2" marker-end="url(#arrow-2dd4bf)" stroke-linejoin="round"/>
  
      <circle cx="952.5" cy="96" r="21.32" fill="#059669" stroke="#34d399" stroke-width="2"/>
      <polygon points="947.2766,88.538 947.2766,103.462 959.962,96" fill="white"/>
    
    <rect x="792.5" y="252" width="320" height="100" rx="8" fill="#1e1e2e" stroke="#2dd4bf" stroke-width="1.5"/>
    <text x="952.5" y="274" text-anchor="middle" fill="#e4e4e7" font-size="14" font-weight="600" font-family="system-ui, sans-serif">Get Today&apos;s Birthday Events (Birthdays</text><text x="952.5" y="292" text-anchor="middle" fill="#e4e4e7" font-size="14" font-weight="600" font-family="system-ui, sans-serif">calendar)</text>
    
      <rect x="800.5" y="328" width="60.199999999999996" height="18" rx="3" fill="#374151"/>
      <text x="830.6" y="340.96" text-anchor="middle" fill="#9ca3af" font-size="11" font-family="system-ui, sans-serif">System</text>
    
        <rect x="864.7" y="328" width="239.79999999999995" height="18" rx="3" fill="#1e293b"/>
        <text x="984.6" y="340.96" text-anchor="middle" fill="#64748b" font-size="11" font-family="system-ui, sans-serif">Google Calendar (UiPath activi…</text>
      
  
      <g transform="translate(952.5, 527)">
        <rect x="-32.4" y="-32.4" width="64.8" height="64.8" rx="4" transform="rotate(45)" fill="#d97706" stroke="#fbbf24" stroke-width="1.5"/>
        <text x="0" y="-9.6" text-anchor="middle" fill="white" font-size="11" font-weight="600" font-family="system-ui, sans-serif">Any Birthdays</text><text x="0" y="4.4" text-anchor="middle" fill="white" font-size="11" font-weight="600" font-family="system-ui, sans-serif">Today?</text>
      </g>
    
      <circle cx="1042.5" cy="3468" r="21.32" fill="#dc2626" stroke="#f87171" stroke-width="2"/>
      <rect x="1032.906" y="3458.406" width="19.188000000000002" height="19.188000000000002" rx="2" fill="white"/>
    
    <rect x="672.5" y="702" width="320" height="100" rx="8" fill="#1e1e2e" stroke="#2dd4bf" stroke-width="1.5"/>
    <text x="832.5" y="724" text-anchor="middle" fill="#e4e4e7" font-size="14" font-weight="600" font-family="system-ui, sans-serif">For Each Birthday Person</text>
    
      <rect x="680.5" y="778" width="60.199999999999996" height="18" rx="3" fill="#374151"/>
      <text x="710.6" y="790.96" text-anchor="middle" fill="#9ca3af" font-size="11" font-family="system-ui, sans-serif">System</text>
    
        <rect x="744.7" y="778" width="106.39999999999999" height="18" rx="3" fill="#1e293b"/>
        <text x="797.9000000000001" y="790.96" text-anchor="middle" fill="#64748b" font-size="11" font-family="system-ui, sans-serif">Orchestrator</text>
      
  
    <rect x="672.5" y="932" width="320" height="100" rx="8" fill="#1e1e2e" stroke="#2dd4bf" stroke-width="1.5"/>
    <text x="832.5" y="954" text-anchor="middle" fill="#e4e4e7" font-size="14" font-weight="600" font-family="system-ui, sans-serif">Lookup Contact by Full Name</text>
    
      <rect x="680.5" y="1008" width="60.199999999999996" height="18" rx="3" fill="#374151"/>
      <text x="710.6" y="1020.96" text-anchor="middle" fill="#9ca3af" font-size="11" font-family="system-ui, sans-serif">System</text>
    
        <rect x="744.7" y="1008" width="239.79999999999995" height="18" rx="3" fill="#1e293b"/>
        <text x="864.6" y="1020.96" text-anchor="middle" fill="#64748b" font-size="11" font-family="system-ui, sans-serif">Google Contacts (UiPath activi…</text>
      
  
      <g transform="translate(832.5, 1207)">
        <rect x="-32.4" y="-32.4" width="64.8" height="64.8" rx="4" transform="rotate(45)" fill="#d97706" stroke="#fbbf24" stroke-width="1.5"/>
        <text x="0" y="-9.6" text-anchor="middle" fill="white" font-size="11" font-weight="600" font-family="system-ui, sans-serif">Email</text><text x="0" y="4.4" text-anchor="middle" fill="white" font-size="11" font-weight="600" font-family="system-ui, sans-serif">Available</text>
      </g>
    
    <rect x="882.5" y="1382" width="320" height="100" rx="8" fill="#1e1e2e" stroke="#2dd4bf" stroke-width="1.5"/>
    <text x="1042.5" y="1404" text-anchor="middle" fill="#e4e4e7" font-size="14" font-weight="600" font-family="system-ui, sans-serif">Select Preferred Email (Personal over</text><text x="1042.5" y="1422" text-anchor="middle" fill="#e4e4e7" font-size="14" font-weight="600" font-family="system-ui, sans-serif">Home)</text>
    
      <rect x="890.5" y="1458" width="60.199999999999996" height="18" rx="3" fill="#374151"/>
      <text x="920.6" y="1470.96" text-anchor="middle" fill="#9ca3af" font-size="11" font-family="system-ui, sans-serif">System</text>
    
        <rect x="954.7" y="1458" width="106.39999999999999" height="18" rx="3" fill="#1e293b"/>
        <text x="1007.9000000000001" y="1470.96" text-anchor="middle" fill="#64748b" font-size="11" font-family="system-ui, sans-serif">Orchestrator</text>
      
  
    <rect x="882.5" y="1612" width="320" height="100" rx="8" fill="#1e1e2e" stroke="#2dd4bf" stroke-width="1.5"/>
    <text x="1042.5" y="1634" text-anchor="middle" fill="#e4e4e7" font-size="14" font-weight="600" font-family="system-ui, sans-serif">Generate Birthday Message in My Voice</text>
    
      <rect x="890.5" y="1688" width="60.199999999999996" height="18" rx="3" fill="#374151"/>
      <text x="920.6" y="1700.96" text-anchor="middle" fill="#9ca3af" font-size="11" font-family="system-ui, sans-serif">System</text>
    
        <rect x="954.7" y="1688" width="191.1" height="18" rx="3" fill="#1e293b"/>
        <text x="1050.25" y="1700.96" text-anchor="middle" fill="#64748b" font-size="11" font-family="system-ui, sans-serif">UiPath GenAI Activities</text>
      
  
      <g transform="translate(1042.5, 1887)">
        <rect x="-32.4" y="-32.4" width="64.8" height="64.8" rx="4" transform="rotate(45)" fill="#7c3aed" stroke="#a78bfa" stroke-width="1.5"/>
        <text x="0" y="-9.6" text-anchor="middle" fill="white" font-size="11" font-weight="600" font-family="system-ui, sans-serif">Message Policy</text><text x="0" y="4.4" text-anchor="middle" fill="white" font-size="11" font-weight="600" font-family="system-ui, sans-serif">Check</text>
      </g>
    
    <rect x="882.5" y="2062" width="320" height="100" rx="8" fill="#1e1e2e" stroke="#2dd4bf" stroke-width="1.5"/>
    <text x="1042.5" y="2084" text-anchor="middle" fill="#e4e4e7" font-size="14" font-weight="600" font-family="system-ui, sans-serif">Create Human Review Task (Message Needs</text><text x="1042.5" y="2102" text-anchor="middle" fill="#e4e4e7" font-size="14" font-weight="600" font-family="system-ui, sans-serif">Review)</text>
    
      <rect x="890.5" y="2138" width="60.199999999999996" height="18" rx="3" fill="#374151"/>
      <text x="920.6" y="2150.96" text-anchor="middle" fill="#9ca3af" font-size="11" font-family="system-ui, sans-serif">System</text>
    
        <rect x="954.7" y="2138" width="114.1" height="18" rx="3" fill="#1e293b"/>
        <text x="1011.75" y="2150.96" text-anchor="middle" fill="#64748b" font-size="11" font-family="system-ui, sans-serif">Action Center</text>
      
  
      <g transform="translate(1042.5, 2342)">
        <rect x="-32.4" y="-32.4" width="64.8" height="64.8" rx="4" transform="rotate(45)" fill="#d97706" stroke="#fbbf24" stroke-width="1.5"/>
        <text x="0" y="-9.6" text-anchor="middle" fill="white" font-size="11" font-weight="600" font-family="system-ui, sans-serif">Approved to</text><text x="0" y="4.4" text-anchor="middle" fill="white" font-size="11" font-weight="600" font-family="system-ui, sans-serif">Send?</text>
      </g>
    
    <rect x="730" y="2522" width="320" height="100" rx="8" fill="#1e1e2e" stroke="#2dd4bf" stroke-width="1.5"/>
    <text x="890" y="2544" text-anchor="middle" fill="#e4e4e7" font-size="14" font-weight="600" font-family="system-ui, sans-serif">Send Birthday Email</text>
    
      <rect x="738" y="2598" width="60.199999999999996" height="18" rx="3" fill="#374151"/>
      <text x="768.1" y="2610.96" text-anchor="middle" fill="#9ca3af" font-size="11" font-family="system-ui, sans-serif">System</text>
    
        <rect x="802.2" y="2598" width="221.89999999999998" height="18" rx="3" fill="#1e293b"/>
        <text x="913.1500000000001" y="2610.96" text-anchor="middle" fill="#64748b" font-size="11" font-family="system-ui, sans-serif">Gmail (Integration Service)</text>
      
  
    <rect x="1168.5" y="2982" width="320" height="100" rx="8" fill="#1e1e2e" stroke="#2dd4bf" stroke-width="1.5"/>
    <text x="1328.5" y="3004" text-anchor="middle" fill="#e4e4e7" font-size="14" font-weight="600" font-family="system-ui, sans-serif">Skip Send (Rejected)</text>
    
      <rect x="1176.5" y="3058" width="60.199999999999996" height="18" rx="3" fill="#374151"/>
      <text x="1206.6" y="3070.96" text-anchor="middle" fill="#9ca3af" font-size="11" font-family="system-ui, sans-serif">System</text>
    
        <rect x="1240.7" y="3058" width="106.39999999999999" height="18" rx="3" fill="#1e293b"/>
        <text x="1293.9" y="3070.96" text-anchor="middle" fill="#64748b" font-size="11" font-family="system-ui, sans-serif">Orchestrator</text>
      
  
    <rect x="730" y="2752" width="320" height="100" rx="8" fill="#1e1e2e" stroke="#2dd4bf" stroke-width="1.5"/>
    <text x="890" y="2774" text-anchor="middle" fill="#e4e4e7" font-size="14" font-weight="600" font-family="system-ui, sans-serif">Mark Person Processed</text>
    
      <rect x="738" y="2828" width="60.199999999999996" height="18" rx="3" fill="#374151"/>
      <text x="768.1" y="2840.96" text-anchor="middle" fill="#9ca3af" font-size="11" font-family="system-ui, sans-serif">System</text>
    
        <rect x="802.2" y="2828" width="106.39999999999999" height="18" rx="3" fill="#1e293b"/>
        <text x="855.4000000000001" y="2840.96" text-anchor="middle" fill="#64748b" font-size="11" font-family="system-ui, sans-serif">Data Service</text>
      
  
    <rect x="1168.5" y="3212" width="320" height="100" rx="8" fill="#1e1e2e" stroke="#2dd4bf" stroke-width="1.5"/>
    <text x="1328.5" y="3234" text-anchor="middle" fill="#e4e4e7" font-size="14" font-weight="600" font-family="system-ui, sans-serif">Mark Person Skipped</text>
    
      <rect x="1176.5" y="3288" width="60.199999999999996" height="18" rx="3" fill="#374151"/>
      <text x="1206.6" y="3300.96" text-anchor="middle" fill="#9ca3af" font-size="11" font-family="system-ui, sans-serif">System</text>
    
        <rect x="1240.7" y="3288" width="106.39999999999999" height="18" rx="3" fill="#1e293b"/>
        <text x="1293.9" y="3300.96" text-anchor="middle" fill="#64748b" font-size="11" font-family="system-ui, sans-serif">Data Service</text>
      
  
      <g transform="translate(890, 3032)">
        <rect x="-32.4" y="-32.4" width="64.8" height="64.8" rx="4" transform="rotate(45)" fill="#d97706" stroke="#fbbf24" stroke-width="1.5"/>
        <text x="0" y="-9.6" text-anchor="middle" fill="white" font-size="11" font-weight="600" font-family="system-ui, sans-serif">Next Birthday</text><text x="0" y="4.4" text-anchor="middle" fill="white" font-size="11" font-weight="600" font-family="system-ui, sans-serif">Person?</text>
      </g>
    
    <rect x="490" y="3212" width="320" height="100" rx="8" fill="#1e1e2e" stroke="#2dd4bf" stroke-width="1.5"/>
    <text x="650" y="3234" text-anchor="middle" fill="#e4e4e7" font-size="14" font-weight="600" font-family="system-ui, sans-serif">Loop to Next Person</text>
    
      <rect x="498" y="3288" width="60.199999999999996" height="18" rx="3" fill="#374151"/>
      <text x="528.1" y="3300.96" text-anchor="middle" fill="#9ca3af" font-size="11" font-family="system-ui, sans-serif">System</text>
    
        <rect x="562.2" y="3288" width="106.39999999999999" height="18" rx="3" fill="#1e293b"/>
        <text x="615.4000000000001" y="3300.96" text-anchor="middle" fill="#64748b" font-size="11" font-family="system-ui, sans-serif">Orchestrator</text>
      
  
      <circle cx="1033" cy="3262" r="21.32" fill="#dc2626" stroke="#f87171" stroke-width="2"/>
      <rect x="1023.406" y="3252.406" width="19.188000000000002" height="19.188000000000002" rx="2" fill="white"/>
    
    <rect x="310" y="2062" width="320" height="100" rx="8" fill="#1e1e2e" stroke="#2dd4bf" stroke-width="1.5"/>
    <text x="470" y="2084" text-anchor="middle" fill="#e4e4e7" font-size="14" font-weight="600" font-family="system-ui, sans-serif">No Action (No Email Found)</text>
    
      <rect x="318" y="2138" width="60.199999999999996" height="18" rx="3" fill="#374151"/>
      <text x="348.1" y="2150.96" text-anchor="middle" fill="#9ca3af" font-size="11" font-family="system-ui, sans-serif">System</text>
    
        <rect x="382.2" y="2138" width="106.39999999999999" height="18" rx="3" fill="#1e293b"/>
        <text x="435.4" y="2150.96" text-anchor="middle" fill="#64748b" font-size="11" font-family="system-ui, sans-serif">Orchestrator</text>
      
  
    <rect x="310" y="2292" width="320" height="100" rx="8" fill="#1e1e2e" stroke="#2dd4bf" stroke-width="1.5"/>
    <text x="470" y="2314" text-anchor="middle" fill="#e4e4e7" font-size="14" font-weight="600" font-family="system-ui, sans-serif">Mark Missing Email</text>
    
      <rect x="318" y="2368" width="60.199999999999996" height="18" rx="3" fill="#374151"/>
      <text x="348.1" y="2380.96" text-anchor="middle" fill="#9ca3af" font-size="11" font-family="system-ui, sans-serif">System</text>
    
        <rect x="382.2" y="2368" width="106.39999999999999" height="18" rx="3" fill="#1e293b"/>
        <text x="435.4" y="2380.96" text-anchor="middle" fill="#64748b" font-size="11" font-family="system-ui, sans-serif">Data Service</text>
      
  
    <rect x="310" y="2522" width="320" height="100" rx="8" fill="#1e1e2e" stroke="#2dd4bf" stroke-width="1.5"/>
    <text x="470" y="2544" text-anchor="middle" fill="#e4e4e7" font-size="14" font-weight="600" font-family="system-ui, sans-serif">Return to Loop Control</text>
    
      <rect x="318" y="2598" width="60.199999999999996" height="18" rx="3" fill="#374151"/>
      <text x="348.1" y="2610.96" text-anchor="middle" fill="#9ca3af" font-size="11" font-family="system-ui, sans-serif">System</text>
    
        <rect x="382.2" y="2598" width="106.39999999999999" height="18" rx="3" fill="#1e293b"/>
        <text x="435.4" y="2610.96" text-anchor="middle" fill="#64748b" font-size="11" font-family="system-ui, sans-serif">Orchestrator</text>
      
  
    <rect x="310" y="2752" width="320" height="100" rx="8" fill="#1e1e2e" stroke="#2dd4bf" stroke-width="1.5"/>
    <text x="470" y="2774" text-anchor="middle" fill="#e4e4e7" font-size="14" font-weight="600" font-family="system-ui, sans-serif">Continue Loop Check</text>
    
      <rect x="318" y="2828" width="60.199999999999996" height="18" rx="3" fill="#374151"/>
      <text x="348.1" y="2840.96" text-anchor="middle" fill="#9ca3af" font-size="11" font-family="system-ui, sans-serif">System</text>
    
        <rect x="382.2" y="2828" width="106.39999999999999" height="18" rx="3" fill="#1e293b"/>
        <text x="435.4" y="2840.96" text-anchor="middle" fill="#64748b" font-size="11" font-family="system-ui, sans-serif">Orchestrator</text>
      
  
      <g transform="translate(470, 3032)">
        <rect x="-32.4" y="-32.4" width="64.8" height="64.8" rx="4" transform="rotate(45)" fill="#d97706" stroke="#fbbf24" stroke-width="1.5"/>
        <text x="0" y="-9.6" text-anchor="middle" fill="white" font-size="11" font-weight="600" font-family="system-ui, sans-serif">Next Birthday</text><text x="0" y="4.4" text-anchor="middle" fill="white" font-size="11" font-weight="600" font-family="system-ui, sans-serif">Person? (after</text>
      </g>
    
    <rect x="70" y="3212" width="320" height="100" rx="8" fill="#1e1e2e" stroke="#2dd4bf" stroke-width="1.5"/>
    <text x="230" y="3234" text-anchor="middle" fill="#e4e4e7" font-size="14" font-weight="600" font-family="system-ui, sans-serif">Loop to Next (from missing email path)</text>
    
      <rect x="78" y="3288" width="60.199999999999996" height="18" rx="3" fill="#374151"/>
      <text x="108.1" y="3300.96" text-anchor="middle" fill="#9ca3af" font-size="11" font-family="system-ui, sans-serif">System</text>
    
        <rect x="142.2" y="3288" width="106.39999999999999" height="18" rx="3" fill="#1e293b"/>
        <text x="195.39999999999998" y="3300.96" text-anchor="middle" fill="#64748b" font-size="11" font-family="system-ui, sans-serif">Orchestrator</text>
      
  
</svg>