<?xml version="1.0" encoding="UTF-8"?>
<svg xmlns="http://www.w3.org/2000/svg" width="1468.5" height="3394" viewBox="0 0 1468.5 3394">
  <defs>
      <marker id="arrow-2dd4bf" viewBox="0 0 10 10" refX="10" refY="5" markerWidth="10" markerHeight="10" orient="auto-start-reverse">
        <path d="M 0 0 L 10 5 L 0 10 z" fill="#2dd4bf"/>
      </marker>
    
      <marker id="arrow-ef4444" viewBox="0 0 10 10" refX="10" refY="5" markerWidth="10" markerHeight="10" orient="auto-start-reverse">
        <path d="M 0 0 L 10 5 L 0 10 z" fill="#ef4444"/>
      </marker>
    
      <marker id="arrow-22c55e" viewBox="0 0 10 10" refX="10" refY="5" markerWidth="10" markerHeight="10" orient="auto-start-reverse">
        <path d="M 0 0 L 10 5 L 0 10 z" fill="#22c55e"/>
      </marker>
    
      <marker id="arrow-f59e0b" viewBox="0 0 10 10" refX="10" refY="5" markerWidth="10" markerHeight="10" orient="auto-start-reverse">
        <path d="M 0 0 L 10 5 L 0 10 z" fill="#f59e0b"/>
      </marker>
    </defs>
  <rect width="100%" height="100%" fill="#0a0a0f"/>
  <text x="734.25" y="30" text-anchor="middle" fill="#71717a" font-size="18" font-weight="700" font-family="system-ui, sans-serif">IMPROVED: nodes 320×100, decisions 90×90, font 14px, spacing 80/120, DPI 144</text>
  <path d="M 892.5 112 L 892.5 232" fill="none" stroke="#2dd4bf" stroke-width="2" marker-end="url(#arrow-2dd4bf)" stroke-linejoin="round"/><path d="M 892.5 332 L 892.5 452" fill="none" stroke="#2dd4bf" stroke-width="2" marker-end="url(#arrow-2dd4bf)" stroke-linejoin="round"/><path d="M 937.5 497 L 987.5 497 Q 997.5 497 997.5 507 L 997.5 3262.98612181134 Q 997.5 3272 990 3277 L 982.5 3282" fill="none" stroke="#ef4444" stroke-width="2" marker-end="url(#arrow-ef4444)" stroke-linejoin="round"/>
        <rect x="974" y="518" width="27" height="18" rx="4" fill="#18181b" stroke="#ef4444" stroke-width="0.5"/>
        <text x="987.5" y="530.5" text-anchor="middle" fill="#ef4444" font-size="10" font-weight="500" font-family="system-ui, sans-serif">No</text>
      <path d="M 847.5 497 L 792.5 497 Q 782.5 497 782.5 507 L 782.5 662" fill="none" stroke="#22c55e" stroke-width="2" marker-end="url(#arrow-22c55e)" stroke-linejoin="round"/>
        <rect x="780.75" y="518" width="33.5" height="18" rx="4" fill="#18181b" stroke="#22c55e" stroke-width="0.5"/>
        <text x="797.5" y="530.5" text-anchor="middle" fill="#22c55e" font-size="10" font-weight="500" font-family="system-ui, sans-serif">Yes</text>
      <path d="M 782.5 762 L 782.5 882" fill="none" stroke="#2dd4bf" stroke-width="2" marker-end="url(#arrow-2dd4bf)" stroke-linejoin="round"/><path d="M 782.5 982 L 782.5 1102" fill="none" stroke="#2dd4bf" stroke-width="2" marker-end="url(#arrow-2dd4bf)" stroke-linejoin="round"/><path d="M 827.5 1147 L 972.5 1147 Q 982.5 1147 982.5 1157 L 982.5 1312" fill="none" stroke="#22c55e" stroke-width="2" marker-end="url(#arrow-22c55e)" stroke-linejoin="round"/>
        <rect x="860.75" y="1168" width="33.5" height="18" rx="4" fill="#18181b" stroke="#22c55e" stroke-width="0.5"/>
        <text x="877.5" y="1180.5" text-anchor="middle" fill="#22c55e" font-size="10" font-weight="500" font-family="system-ui, sans-serif">Yes</text>
      <path d="M 982.5 1412 L 982.5 1532" fill="none" stroke="#2dd4bf" stroke-width="2" marker-end="url(#arrow-2dd4bf)" stroke-linejoin="round"/><path d="M 982.5 1632 L 982.5 1752" fill="none" stroke="#2dd4bf" stroke-width="2" marker-end="url(#arrow-2dd4bf)" stroke-linejoin="round"/><path d="M 1027.5 1797 L 1077.5 1797 Q 1087.5 1797 1087.5 1807 L 1087.5 1942 Q 1087.5 1952 1077.5450452740604 1952.94809092628 L 982.5 1962" fill="none" stroke="#f59e0b" stroke-width="2" marker-end="url(#arrow-f59e0b)" stroke-linejoin="round"/>
        <rect x="1031.5" y="1818" width="92" height="18" rx="4" fill="#18181b" stroke="#f59e0b" stroke-width="0.5"/>
        <text x="1077.5" y="1830.5" text-anchor="middle" fill="#f59e0b" font-size="10" font-weight="500" font-family="system-ui, sans-serif">Needs review</text>
      <path d="M 982.5 2062 L 982.5 2187" fill="none" stroke="#2dd4bf" stroke-width="2" marker-end="url(#arrow-2dd4bf)" stroke-linejoin="round"/><path d="M 937.5 2232 L 850 2232 Q 840 2232 840 2242 L 840 2402" fill="none" stroke="#22c55e" stroke-width="2" marker-end="url(#arrow-22c55e)" stroke-linejoin="round"/>
        <rect x="854.5" y="2253" width="66" height="18" rx="4" fill="#18181b" stroke="#22c55e" stroke-width="0.5"/>
        <text x="887.5" y="2265.5" text-anchor="middle" fill="#22c55e" font-size="10" font-weight="500" font-family="system-ui, sans-serif">Approved</text>
      <path d="M 1027.5 2232 L 1238.5 2232 Q 1248.5 2232 1248.5 2242 L 1248.5 2842" fill="none" stroke="#ef4444" stroke-width="2" marker-end="url(#arrow-ef4444)" stroke-linejoin="round"/>
        <rect x="1044.5" y="2253" width="66" height="18" rx="4" fill="#18181b" stroke="#ef4444" stroke-width="0.5"/>
        <text x="1077.5" y="2265.5" text-anchor="middle" fill="#ef4444" font-size="10" font-weight="500" font-family="system-ui, sans-serif">Rejected</text>
      <path d="M 840 2502 L 840 2622" fill="none" stroke="#2dd4bf" stroke-width="2" marker-end="url(#arrow-2dd4bf)" stroke-linejoin="round"/><path d="M 1248.5 2942 L 1248.5 3062" fill="none" stroke="#2dd4bf" stroke-width="2" marker-end="url(#arrow-2dd4bf)" stroke-linejoin="round"/><path d="M 840 2722 L 840 2847" fill="none" stroke="#2dd4bf" stroke-width="2" marker-end="url(#arrow-2dd4bf)" stroke-linejoin="round"/><path d="M 795 2892 L 630 2892 Q 620 2892 620 2902 L 620 3062" fill="none" stroke="#22c55e" stroke-width="2" marker-end="url(#arrow-22c55e)" stroke-linejoin="round"/>
        <rect x="728.25" y="2913" width="33.5" height="18" rx="4" fill="#18181b" stroke="#22c55e" stroke-width="0.5"/>
        <text x="745" y="2925.5" text-anchor="middle" fill="#22c55e" font-size="10" font-weight="500" font-family="system-ui, sans-serif">Yes</text>
      <path d="M 885 2892 L 963 2892 Q 973 2892 973 2902 L 973 3086" fill="none" stroke="#ef4444" stroke-width="2" marker-end="url(#arrow-ef4444)" stroke-linejoin="round"/>
        <rect x="921.5" y="2913" width="27" height="18" rx="4" fill="#18181b" stroke="#ef4444" stroke-width="0.5"/>
        <text x="935" y="2925.5" text-anchor="middle" fill="#ef4444" font-size="10" font-weight="500" font-family="system-ui, sans-serif">No</text>
      <path d="M 737.5 1147 L 450 1147 Q 440 1147 440 1157 L 440 1962" fill="none" stroke="#ef4444" stroke-width="2" marker-end="url(#arrow-ef4444)" stroke-linejoin="round"/>
        <rect x="674" y="1168" width="27" height="18" rx="4" fill="#18181b" stroke="#ef4444" stroke-width="0.5"/>
        <text x="687.5" y="1180.5" text-anchor="middle" fill="#ef4444" font-size="10" font-weight="500" font-family="system-ui, sans-serif">No</text>
      <path d="M 440 2062 L 440 2182" fill="none" stroke="#2dd4bf" stroke-width="2" marker-end="url(#arrow-2dd4bf)" stroke-linejoin="round"/><path d="M 440 2282 L 440 2402" fill="none" stroke="#2dd4bf" stroke-width="2" marker-end="url(#arrow-2dd4bf)" stroke-linejoin="round"/><path d="M 440 2502 L 440 2622" fill="none" stroke="#2dd4bf" stroke-width="2" marker-end="url(#arrow-2dd4bf)" stroke-linejoin="round"/><path d="M 440 2722 L 440 2847" fill="none" stroke="#2dd4bf" stroke-width="2" marker-end="url(#arrow-2dd4bf)" stroke-linejoin="round"/><path d="M 395 2892 L 230 2892 Q 220 2892 220 2902 L 220 3062" fill="none" stroke="#22c55e" stroke-width="2" marker-end="url(#arrow-22c55e)" stroke-linejoin="round"/>
        <rect x="328.25" y="2913" width="33.5" height="18" rx="4" fill="#18181b" stroke="#22c55e" stroke-width="0.5"/>
        <text x="345" y="2925.5" text-anchor="middle" fill="#22c55e" font-size="10" font-weight="500" font-family="system-ui, sans-serif">Yes</text>
      <path d="M 485 2892 L 963 2892 Q 973 2892 973 2902 L 973 3086" fill="none" stroke="#ef4444" stroke-width="2" marker-end="url(#arrow-ef4444)" stroke-linejoin="round"/>
        <rect x="521.5" y="2913" width="27" height="18" rx="4" fill="#18181b" stroke="#ef4444" stroke-width="0.5"/>
        <text x="535" y="2925.5" text-anchor="middle" fill="#ef4444" font-size="10" font-weight="500" font-family="system-ui, sans-serif">No</text>
      <path d="M 1248.5 3162 L 1248.5 3212 Q 1248.5 3222 1238.5 3222 L 992.5 3222 Q 982.5 3222 982.5 3232 L 982.5 3282" fill="none" stroke="#2dd4bf" stroke-width="2" marker-end="url(#arrow-2dd4bf)" stroke-linejoin="round"/><path d="M 620 3162 L 620 3212 Q 620 3222 630 3222 L 972.5 3222 Q 982.5 3222 982.5 3232 L 982.5 3282" fill="none" stroke="#2dd4bf" stroke-width="2" marker-end="url(#arrow-2dd4bf)" stroke-linejoin="round"/><path d="M 220 3162 L 220 3212 Q 220 3222 230 3222 L 972.5 3222 Q 982.5 3222 982.5 3232 L 982.5 3282" fill="none" stroke="#2dd4bf" stroke-width="2" marker-end="url(#arrow-2dd4bf)" stroke-linejoin="round"/>
  
      <circle cx="892.5" cy="86" r="21.32" fill="#059669" stroke="#34d399" stroke-width="2"/>
      <polygon points="887.2766,78.538 887.2766,93.462 899.962,86" fill="white"/>
    
    <rect x="732.5" y="232" width="320" height="100" rx="8" fill="#1e1e2e" stroke="#2dd4bf" stroke-width="1.5"/>
    <text x="892.5" y="254" text-anchor="middle" fill="#e4e4e7" font-size="14" font-weight="600" font-family="system-ui, sans-serif">Get Today&apos;s Birthday Events (Birthdays</text><text x="892.5" y="272" text-anchor="middle" fill="#e4e4e7" font-size="14" font-weight="600" font-family="system-ui, sans-serif">calendar)</text>
    
      <rect x="740.5" y="308" width="60.199999999999996" height="18" rx="3" fill="#374151"/>
      <text x="770.6" y="320.96" text-anchor="middle" fill="#9ca3af" font-size="11" font-family="system-ui, sans-serif">System</text>
    
        <rect x="804.7" y="308" width="239.79999999999995" height="18" rx="3" fill="#1e293b"/>
        <text x="924.6" y="320.96" text-anchor="middle" fill="#64748b" font-size="11" font-family="system-ui, sans-serif">Google Calendar (UiPath activi…</text>
      
  
      <g transform="translate(892.5, 497)">
        <rect x="-45" y="-45" width="90" height="90" rx="4" transform="rotate(45)" fill="#d97706" stroke="#fbbf24" stroke-width="1.5"/>
        <text x="0" y="-2.5999999999999996" text-anchor="middle" fill="white" font-size="11" font-weight="600" font-family="system-ui, sans-serif">Any Birthdays Today?</text>
      </g>
    
      <circle cx="982.5" cy="3308" r="21.32" fill="#dc2626" stroke="#f87171" stroke-width="2"/>
      <rect x="972.906" y="3298.406" width="19.188000000000002" height="19.188000000000002" rx="2" fill="white"/>
    
    <rect x="622.5" y="662" width="320" height="100" rx="8" fill="#1e1e2e" stroke="#2dd4bf" stroke-width="1.5"/>
    <text x="782.5" y="684" text-anchor="middle" fill="#e4e4e7" font-size="14" font-weight="600" font-family="system-ui, sans-serif">For Each Birthday Person</text>
    
      <rect x="630.5" y="738" width="60.199999999999996" height="18" rx="3" fill="#374151"/>
      <text x="660.6" y="750.96" text-anchor="middle" fill="#9ca3af" font-size="11" font-family="system-ui, sans-serif">System</text>
    
        <rect x="694.7" y="738" width="106.39999999999999" height="18" rx="3" fill="#1e293b"/>
        <text x="747.9000000000001" y="750.96" text-anchor="middle" fill="#64748b" font-size="11" font-family="system-ui, sans-serif">Orchestrator</text>
      
  
    <rect x="622.5" y="882" width="320" height="100" rx="8" fill="#1e1e2e" stroke="#2dd4bf" stroke-width="1.5"/>
    <text x="782.5" y="904" text-anchor="middle" fill="#e4e4e7" font-size="14" font-weight="600" font-family="system-ui, sans-serif">Lookup Contact by Full Name</text>
    
      <rect x="630.5" y="958" width="60.199999999999996" height="18" rx="3" fill="#374151"/>
      <text x="660.6" y="970.96" text-anchor="middle" fill="#9ca3af" font-size="11" font-family="system-ui, sans-serif">System</text>
    
        <rect x="694.7" y="958" width="239.79999999999995" height="18" rx="3" fill="#1e293b"/>
        <text x="814.6" y="970.96" text-anchor="middle" fill="#64748b" font-size="11" font-family="system-ui, sans-serif">Google Contacts (UiPath activi…</text>
      
  
      <g transform="translate(782.5, 1147)">
        <rect x="-45" y="-45" width="90" height="90" rx="4" transform="rotate(45)" fill="#d97706" stroke="#fbbf24" stroke-width="1.5"/>
        <text x="0" y="-9.6" text-anchor="middle" fill="white" font-size="11" font-weight="600" font-family="system-ui, sans-serif">Email Available</text><text x="0" y="4.4" text-anchor="middle" fill="white" font-size="11" font-weight="600" font-family="system-ui, sans-serif">(Personal/Home)?</text>
      </g>
    
    <rect x="822.5" y="1312" width="320" height="100" rx="8" fill="#1e1e2e" stroke="#2dd4bf" stroke-width="1.5"/>
    <text x="982.5" y="1334" text-anchor="middle" fill="#e4e4e7" font-size="14" font-weight="600" font-family="system-ui, sans-serif">Select Preferred Email (Personal over</text><text x="982.5" y="1352" text-anchor="middle" fill="#e4e4e7" font-size="14" font-weight="600" font-family="system-ui, sans-serif">Home)</text>
    
      <rect x="830.5" y="1388" width="60.199999999999996" height="18" rx="3" fill="#374151"/>
      <text x="860.6" y="1400.96" text-anchor="middle" fill="#9ca3af" font-size="11" font-family="system-ui, sans-serif">System</text>
    
        <rect x="894.7" y="1388" width="106.39999999999999" height="18" rx="3" fill="#1e293b"/>
        <text x="947.9000000000001" y="1400.96" text-anchor="middle" fill="#64748b" font-size="11" font-family="system-ui, sans-serif">Orchestrator</text>
      
  
    <rect x="822.5" y="1532" width="320" height="100" rx="8" fill="#1e1e2e" stroke="#2dd4bf" stroke-width="1.5"/>
    <text x="982.5" y="1554" text-anchor="middle" fill="#e4e4e7" font-size="14" font-weight="600" font-family="system-ui, sans-serif">Generate Birthday Message in My Voice</text>
    
      <rect x="830.5" y="1608" width="60.199999999999996" height="18" rx="3" fill="#374151"/>
      <text x="860.6" y="1620.96" text-anchor="middle" fill="#9ca3af" font-size="11" font-family="system-ui, sans-serif">System</text>
    
        <rect x="894.7" y="1608" width="191.1" height="18" rx="3" fill="#1e293b"/>
        <text x="990.25" y="1620.96" text-anchor="middle" fill="#64748b" font-size="11" font-family="system-ui, sans-serif">UiPath GenAI Activities</text>
      
  
      <g transform="translate(982.5, 1797)">
        <rect x="-45" y="-45" width="90" height="90" rx="4" transform="rotate(45)" fill="#7c3aed" stroke="#a78bfa" stroke-width="1.5"/>
        <text x="0" y="-9.6" text-anchor="middle" fill="white" font-size="11" font-weight="600" font-family="system-ui, sans-serif">Message Policy Check</text><text x="0" y="4.4" text-anchor="middle" fill="white" font-size="11" font-weight="600" font-family="system-ui, sans-serif">(safe/appropriate/no sensitive</text>
      </g>
    
    <rect x="822.5" y="1962" width="320" height="100" rx="8" fill="#1e1e2e" stroke="#2dd4bf" stroke-width="1.5"/>
    <text x="982.5" y="1984" text-anchor="middle" fill="#e4e4e7" font-size="14" font-weight="600" font-family="system-ui, sans-serif">Create Human Review Task (Message Needs</text><text x="982.5" y="2002" text-anchor="middle" fill="#e4e4e7" font-size="14" font-weight="600" font-family="system-ui, sans-serif">Review)</text>
    
      <rect x="830.5" y="2038" width="60.199999999999996" height="18" rx="3" fill="#374151"/>
      <text x="860.6" y="2050.96" text-anchor="middle" fill="#9ca3af" font-size="11" font-family="system-ui, sans-serif">System</text>
    
        <rect x="894.7" y="2038" width="114.1" height="18" rx="3" fill="#1e293b"/>
        <text x="951.75" y="2050.96" text-anchor="middle" fill="#64748b" font-size="11" font-family="system-ui, sans-serif">Action Center</text>
      
  
      <g transform="translate(982.5, 2232)">
        <rect x="-45" y="-45" width="90" height="90" rx="4" transform="rotate(45)" fill="#d97706" stroke="#fbbf24" stroke-width="1.5"/>
        <text x="0" y="-2.5999999999999996" text-anchor="middle" fill="white" font-size="11" font-weight="600" font-family="system-ui, sans-serif">Approved to Send?</text>
      </g>
    
    <rect x="680" y="2402" width="320" height="100" rx="8" fill="#1e1e2e" stroke="#2dd4bf" stroke-width="1.5"/>
    <text x="840" y="2424" text-anchor="middle" fill="#e4e4e7" font-size="14" font-weight="600" font-family="system-ui, sans-serif">Send Birthday Email</text>
    
      <rect x="688" y="2478" width="60.199999999999996" height="18" rx="3" fill="#374151"/>
      <text x="718.1" y="2490.96" text-anchor="middle" fill="#9ca3af" font-size="11" font-family="system-ui, sans-serif">System</text>
    
        <rect x="752.2" y="2478" width="221.89999999999998" height="18" rx="3" fill="#1e293b"/>
        <text x="863.1500000000001" y="2490.96" text-anchor="middle" fill="#64748b" font-size="11" font-family="system-ui, sans-serif">Gmail (Integration Service)</text>
      
  
    <rect x="1088.5" y="2842" width="320" height="100" rx="8" fill="#1e1e2e" stroke="#2dd4bf" stroke-width="1.5"/>
    <text x="1248.5" y="2864" text-anchor="middle" fill="#e4e4e7" font-size="14" font-weight="600" font-family="system-ui, sans-serif">Skip Send (Rejected)</text>
    
      <rect x="1096.5" y="2918" width="60.199999999999996" height="18" rx="3" fill="#374151"/>
      <text x="1126.6" y="2930.96" text-anchor="middle" fill="#9ca3af" font-size="11" font-family="system-ui, sans-serif">System</text>
    
        <rect x="1160.7" y="2918" width="106.39999999999999" height="18" rx="3" fill="#1e293b"/>
        <text x="1213.9" y="2930.96" text-anchor="middle" fill="#64748b" font-size="11" font-family="system-ui, sans-serif">Orchestrator</text>
      
  
    <rect x="680" y="2622" width="320" height="100" rx="8" fill="#1e1e2e" stroke="#2dd4bf" stroke-width="1.5"/>
    <text x="840" y="2644" text-anchor="middle" fill="#e4e4e7" font-size="14" font-weight="600" font-family="system-ui, sans-serif">Mark Person Processed</text>
    
      <rect x="688" y="2698" width="60.199999999999996" height="18" rx="3" fill="#374151"/>
      <text x="718.1" y="2710.96" text-anchor="middle" fill="#9ca3af" font-size="11" font-family="system-ui, sans-serif">System</text>
    
        <rect x="752.2" y="2698" width="106.39999999999999" height="18" rx="3" fill="#1e293b"/>
        <text x="805.4000000000001" y="2710.96" text-anchor="middle" fill="#64748b" font-size="11" font-family="system-ui, sans-serif">Data Service</text>
      
  
    <rect x="1088.5" y="3062" width="320" height="100" rx="8" fill="#1e1e2e" stroke="#2dd4bf" stroke-width="1.5"/>
    <text x="1248.5" y="3084" text-anchor="middle" fill="#e4e4e7" font-size="14" font-weight="600" font-family="system-ui, sans-serif">Mark Person Skipped</text>
    
      <rect x="1096.5" y="3138" width="60.199999999999996" height="18" rx="3" fill="#374151"/>
      <text x="1126.6" y="3150.96" text-anchor="middle" fill="#9ca3af" font-size="11" font-family="system-ui, sans-serif">System</text>
    
        <rect x="1160.7" y="3138" width="106.39999999999999" height="18" rx="3" fill="#1e293b"/>
        <text x="1213.9" y="3150.96" text-anchor="middle" fill="#64748b" font-size="11" font-family="system-ui, sans-serif">Data Service</text>
      
  
      <g transform="translate(840, 2892)">
        <rect x="-45" y="-45" width="90" height="90" rx="4" transform="rotate(45)" fill="#d97706" stroke="#fbbf24" stroke-width="1.5"/>
        <text x="0" y="-2.5999999999999996" text-anchor="middle" fill="white" font-size="11" font-weight="600" font-family="system-ui, sans-serif">Next Birthday Person?</text>
      </g>
    
    <rect x="460" y="3062" width="320" height="100" rx="8" fill="#1e1e2e" stroke="#2dd4bf" stroke-width="1.5"/>
    <text x="620" y="3084" text-anchor="middle" fill="#e4e4e7" font-size="14" font-weight="600" font-family="system-ui, sans-serif">Loop to Next Person</text>
    
      <rect x="468" y="3138" width="60.199999999999996" height="18" rx="3" fill="#374151"/>
      <text x="498.1" y="3150.96" text-anchor="middle" fill="#9ca3af" font-size="11" font-family="system-ui, sans-serif">System</text>
    
        <rect x="532.2" y="3138" width="106.39999999999999" height="18" rx="3" fill="#1e293b"/>
        <text x="585.4000000000001" y="3150.96" text-anchor="middle" fill="#64748b" font-size="11" font-family="system-ui, sans-serif">Orchestrator</text>
      
  
      <circle cx="973" cy="3112" r="21.32" fill="#dc2626" stroke="#f87171" stroke-width="2"/>
      <rect x="963.406" y="3102.406" width="19.188000000000002" height="19.188000000000002" rx="2" fill="white"/>
    
    <rect x="280" y="1962" width="320" height="100" rx="8" fill="#1e1e2e" stroke="#2dd4bf" stroke-width="1.5"/>
    <text x="440" y="1984" text-anchor="middle" fill="#e4e4e7" font-size="14" font-weight="600" font-family="system-ui, sans-serif">No Action (No Email Found)</text>
    
      <rect x="288" y="2038" width="60.199999999999996" height="18" rx="3" fill="#374151"/>
      <text x="318.1" y="2050.96" text-anchor="middle" fill="#9ca3af" font-size="11" font-family="system-ui, sans-serif">System</text>
    
        <rect x="352.2" y="2038" width="106.39999999999999" height="18" rx="3" fill="#1e293b"/>
        <text x="405.4" y="2050.96" text-anchor="middle" fill="#64748b" font-size="11" font-family="system-ui, sans-serif">Orchestrator</text>
      
  
    <rect x="280" y="2182" width="320" height="100" rx="8" fill="#1e1e2e" stroke="#2dd4bf" stroke-width="1.5"/>
    <text x="440" y="2204" text-anchor="middle" fill="#e4e4e7" font-size="14" font-weight="600" font-family="system-ui, sans-serif">Mark Missing Email</text>
    
      <rect x="288" y="2258" width="60.199999999999996" height="18" rx="3" fill="#374151"/>
      <text x="318.1" y="2270.96" text-anchor="middle" fill="#9ca3af" font-size="11" font-family="system-ui, sans-serif">System</text>
    
        <rect x="352.2" y="2258" width="106.39999999999999" height="18" rx="3" fill="#1e293b"/>
        <text x="405.4" y="2270.96" text-anchor="middle" fill="#64748b" font-size="11" font-family="system-ui, sans-serif">Data Service</text>
      
  
    <rect x="280" y="2402" width="320" height="100" rx="8" fill="#1e1e2e" stroke="#2dd4bf" stroke-width="1.5"/>
    <text x="440" y="2424" text-anchor="middle" fill="#e4e4e7" font-size="14" font-weight="600" font-family="system-ui, sans-serif">Return to Loop Control</text>
    
      <rect x="288" y="2478" width="60.199999999999996" height="18" rx="3" fill="#374151"/>
      <text x="318.1" y="2490.96" text-anchor="middle" fill="#9ca3af" font-size="11" font-family="system-ui, sans-serif">System</text>
    
        <rect x="352.2" y="2478" width="106.39999999999999" height="18" rx="3" fill="#1e293b"/>
        <text x="405.4" y="2490.96" text-anchor="middle" fill="#64748b" font-size="11" font-family="system-ui, sans-serif">Orchestrator</text>
      
  
    <rect x="280" y="2622" width="320" height="100" rx="8" fill="#1e1e2e" stroke="#2dd4bf" stroke-width="1.5"/>
    <text x="440" y="2644" text-anchor="middle" fill="#e4e4e7" font-size="14" font-weight="600" font-family="system-ui, sans-serif">Continue Loop Check</text>
    
      <rect x="288" y="2698" width="60.199999999999996" height="18" rx="3" fill="#374151"/>
      <text x="318.1" y="2710.96" text-anchor="middle" fill="#9ca3af" font-size="11" font-family="system-ui, sans-serif">System</text>
    
        <rect x="352.2" y="2698" width="106.39999999999999" height="18" rx="3" fill="#1e293b"/>
        <text x="405.4" y="2710.96" text-anchor="middle" fill="#64748b" font-size="11" font-family="system-ui, sans-serif">Orchestrator</text>
      
  
      <g transform="translate(440, 2892)">
        <rect x="-45" y="-45" width="90" height="90" rx="4" transform="rotate(45)" fill="#d97706" stroke="#fbbf24" stroke-width="1.5"/>
        <text x="0" y="-9.6" text-anchor="middle" fill="white" font-size="11" font-weight="600" font-family="system-ui, sans-serif">Next Birthday Person? (after</text><text x="0" y="4.4" text-anchor="middle" fill="white" font-size="11" font-weight="600" font-family="system-ui, sans-serif">missing email)</text>
      </g>
    
    <rect x="60" y="3062" width="320" height="100" rx="8" fill="#1e1e2e" stroke="#2dd4bf" stroke-width="1.5"/>
    <text x="220" y="3084" text-anchor="middle" fill="#e4e4e7" font-size="14" font-weight="600" font-family="system-ui, sans-serif">Loop to Next (from missing email path)</text>
    
      <rect x="68" y="3138" width="60.199999999999996" height="18" rx="3" fill="#374151"/>
      <text x="98.1" y="3150.96" text-anchor="middle" fill="#9ca3af" font-size="11" font-family="system-ui, sans-serif">System</text>
    
        <rect x="132.2" y="3138" width="106.39999999999999" height="18" rx="3" fill="#1e293b"/>
        <text x="185.39999999999998" y="3150.96" text-anchor="middle" fill="#64748b" font-size="11" font-family="system-ui, sans-serif">Orchestrator</text>
      
  
</svg>