<?xml version="1.0" encoding="UTF-8"?>
<svg xmlns="http://www.w3.org/2000/svg" width="1728.5" height="3714" viewBox="0 0 1728.5 3714" shape-rendering="geometricPrecision" text-rendering="optimizeLegibility">
  <defs>
      <marker id="arrow-5eead4" viewBox="0 0 10 10" refX="10" refY="5" markerWidth="11" markerHeight="11" orient="auto-start-reverse">
        <path d="M 0 0 L 10 5 L 0 10 z" fill="#5eead4"/>
      </marker>
    
      <marker id="arrow-f87171" viewBox="0 0 10 10" refX="10" refY="5" markerWidth="11" markerHeight="11" orient="auto-start-reverse">
        <path d="M 0 0 L 10 5 L 0 10 z" fill="#f87171"/>
      </marker>
    
      <marker id="arrow-4ade80" viewBox="0 0 10 10" refX="10" refY="5" markerWidth="11" markerHeight="11" orient="auto-start-reverse">
        <path d="M 0 0 L 10 5 L 0 10 z" fill="#4ade80"/>
      </marker>
    
      <marker id="arrow-fbbf24" viewBox="0 0 10 10" refX="10" refY="5" markerWidth="11" markerHeight="11" orient="auto-start-reverse">
        <path d="M 0 0 L 10 5 L 0 10 z" fill="#fbbf24"/>
      </marker>
    </defs>
  <rect width="100%" height="100%" fill="#0a0a0f"/>
  <text x="864.25" y="30" text-anchor="middle" fill="#71717a" font-size="16" font-weight="700" font-family="system-ui, sans-serif">IMPROVED: nodes 320×100, decisions 90×90, font 14px, spacing 120/140, DPI 200</text>
  <path d="M 1052.5 122 L 1052.5 262" fill="none" stroke="#5eead4" stroke-width="2.5" marker-end="url(#arrow-5eead4)" stroke-linejoin="round"/><path d="M 1052.5 362 L 1052.5 502" fill="none" stroke="#5eead4" stroke-width="2.5" marker-end="url(#arrow-5eead4)" stroke-linejoin="round"/><path d="M 1097.5 547 L 1174.5 547 Q 1188.5 547 1188.5 561 L 1188.5 1751 Q 1188.5 1765 1174.5 1765 L 1156.5 1765 Q 1142.5 1765 1142.5 1779 L 1142.5 3592" fill="none" stroke="#f87171" stroke-width="2.5" marker-end="url(#arrow-f87171)" stroke-linejoin="round"/>
        <rect x="1128.85" y="522.5" width="28.3" height="19" rx="4" fill="#18181b" stroke="#f87171" stroke-width="0.5"/>
        <text x="1143" y="535.85" text-anchor="middle" fill="#f87171" font-size="11" font-weight="500" font-family="system-ui, sans-serif">No</text>
      <path d="M 1007.5 547 L 756.5 547 Q 742.5 547 742.5 561 L 742.5 607 Q 742.5 621 756.5 621 L 908.5 621 Q 922.5 621 922.5 635 L 922.5 732" fill="none" stroke="#4ade80" stroke-width="2.5" marker-end="url(#arrow-4ade80)" stroke-linejoin="round"/>
        <rect x="857.275" y="522.5" width="35.45" height="19" rx="4" fill="#18181b" stroke="#4ade80" stroke-width="0.5"/>
        <text x="875" y="535.85" text-anchor="middle" fill="#4ade80" font-size="11" font-weight="500" font-family="system-ui, sans-serif">Yes</text>
      <path d="M 922.5 832 L 922.5 972" fill="none" stroke="#5eead4" stroke-width="2.5" marker-end="url(#arrow-5eead4)" stroke-linejoin="round"/><path d="M 922.5 1072 L 922.5 1212" fill="none" stroke="#5eead4" stroke-width="2.5" marker-end="url(#arrow-5eead4)" stroke-linejoin="round"/><path d="M 967.5 1257 L 1308.5 1257 Q 1322.5 1257 1322.5 1271 L 1322.5 1317 Q 1322.5 1331 1308.5 1331 L 1156.5 1331 Q 1142.5 1331 1142.5 1345 L 1142.5 1442" fill="none" stroke="#4ade80" stroke-width="2.5" marker-end="url(#arrow-4ade80)" stroke-linejoin="round"/>
        <rect x="1127.275" y="1232.5" width="35.45" height="19" rx="4" fill="#18181b" stroke="#4ade80" stroke-width="0.5"/>
        <text x="1145" y="1245.85" text-anchor="middle" fill="#4ade80" font-size="11" font-weight="500" font-family="system-ui, sans-serif">Yes</text>
      <path d="M 1142.5 1542 L 1142.5 1682" fill="none" stroke="#5eead4" stroke-width="2.5" marker-end="url(#arrow-5eead4)" stroke-linejoin="round"/><path d="M 1142.5 1782 L 1142.5 1922" fill="none" stroke="#5eead4" stroke-width="2.5" marker-end="url(#arrow-5eead4)" stroke-linejoin="round"/><path d="M 1142.5 2012 L 1142.5 2152" fill="none" stroke="#fbbf24" stroke-width="2.5" marker-end="url(#arrow-fbbf24)" stroke-linejoin="round"/>
        <rect x="1092.6" y="2072.5" width="99.80000000000001" height="19" rx="4" fill="#18181b" stroke="#fbbf24" stroke-width="0.5"/>
        <text x="1142.5" y="2085.85" text-anchor="middle" fill="#fbbf24" font-size="11" font-weight="500" font-family="system-ui, sans-serif">Needs review</text>
      <path d="M 1142.5 2252 L 1142.5 2397" fill="none" stroke="#5eead4" stroke-width="2.5" marker-end="url(#arrow-5eead4)" stroke-linejoin="round"/><path d="M 1097.5 2442 L 814 2442 Q 800 2442 800 2456 L 800 2504 Q 800 2518 814 2518 L 966 2518 Q 980 2518 980 2532 L 980 2632" fill="none" stroke="#4ade80" stroke-width="2.5" marker-end="url(#arrow-4ade80)" stroke-linejoin="round"/>
        <rect x="913.15" y="2417.5" width="71.2" height="19" rx="4" fill="#18181b" stroke="#4ade80" stroke-width="0.5"/>
        <text x="948.75" y="2430.85" text-anchor="middle" fill="#4ade80" font-size="11" font-weight="500" font-family="system-ui, sans-serif">Approved</text>
      <path d="M 1187.5 2442 L 1614.5 2442 Q 1628.5 2442 1628.5 2456 L 1628.5 2696 Q 1628.5 2710 1614.5 2710 L 1462.5 2710 Q 1448.5 2710 1448.5 2724 L 1448.5 3112" fill="none" stroke="#f87171" stroke-width="2.5" marker-end="url(#arrow-f87171)" stroke-linejoin="round"/>
        <rect x="1372.4" y="2417.5" width="71.2" height="19" rx="4" fill="#18181b" stroke="#f87171" stroke-width="0.5"/>
        <text x="1408" y="2430.85" text-anchor="middle" fill="#f87171" font-size="11" font-weight="500" font-family="system-ui, sans-serif">Rejected</text>
      <path d="M 980 2732 L 980 2872" fill="none" stroke="#5eead4" stroke-width="2.5" marker-end="url(#arrow-5eead4)" stroke-linejoin="round"/><path d="M 1448.5 3212 L 1448.5 3352" fill="none" stroke="#5eead4" stroke-width="2.5" marker-end="url(#arrow-5eead4)" stroke-linejoin="round"/><path d="M 980 2972 L 980 3117" fill="none" stroke="#5eead4" stroke-width="2.5" marker-end="url(#arrow-5eead4)" stroke-linejoin="round"/><path d="M 935 3162 L 554 3162 Q 540 3162 540 3176 L 540 3224 Q 540 3238 554 3238 L 706 3238 Q 720 3238 720 3252 L 720 3352" fill="none" stroke="#4ade80" stroke-width="2.5" marker-end="url(#arrow-4ade80)" stroke-linejoin="round"/>
        <rect x="719.775" y="3137.5" width="35.45" height="19" rx="4" fill="#18181b" stroke="#4ade80" stroke-width="0.5"/>
        <text x="737.5" y="3150.85" text-anchor="middle" fill="#4ade80" font-size="11" font-weight="500" font-family="system-ui, sans-serif">Yes</text>
      <path d="M 1025 3162 L 1165 3162 Q 1179 3162 1179 3176 L 1179 3233.6 Q 1179 3247.6 1165 3247.6 L 1147 3247.6 Q 1133 3247.6 1133 3261.6 L 1133 3376" fill="none" stroke="#f87171" stroke-width="2.5" marker-end="url(#arrow-f87171)" stroke-linejoin="round"/>
        <rect x="1087.85" y="3137.5" width="28.3" height="19" rx="4" fill="#18181b" stroke="#f87171" stroke-width="0.5"/>
        <text x="1102" y="3150.85" text-anchor="middle" fill="#f87171" font-size="11" font-weight="500" font-family="system-ui, sans-serif">No</text>
      <path d="M 877.5 1257 L 374 1257 Q 360 1257 360 1271 L 360 1601 Q 360 1615 374 1615 L 526 1615 Q 540 1615 540 1629 L 540 2152" fill="none" stroke="#f87171" stroke-width="2.5" marker-end="url(#arrow-f87171)" stroke-linejoin="round"/>
        <rect x="604.6" y="1232.5" width="28.3" height="19" rx="4" fill="#18181b" stroke="#f87171" stroke-width="0.5"/>
        <text x="618.75" y="1245.85" text-anchor="middle" fill="#f87171" font-size="11" font-weight="500" font-family="system-ui, sans-serif">No</text>
      <path d="M 540 2252 L 540 2392" fill="none" stroke="#5eead4" stroke-width="2.5" marker-end="url(#arrow-5eead4)" stroke-linejoin="round"/><path d="M 540 2492 L 540 2632" fill="none" stroke="#5eead4" stroke-width="2.5" marker-end="url(#arrow-5eead4)" stroke-linejoin="round"/><path d="M 540 2732 L 540 2872" fill="none" stroke="#5eead4" stroke-width="2.5" marker-end="url(#arrow-5eead4)" stroke-linejoin="round"/><path d="M 540 2972 L 540 3117" fill="none" stroke="#5eead4" stroke-width="2.5" marker-end="url(#arrow-5eead4)" stroke-linejoin="round"/><path d="M 495 3162 L 114 3162 Q 100 3162 100 3176 L 100 3224 Q 100 3238 114 3238 L 266 3238 Q 280 3238 280 3252 L 280 3352" fill="none" stroke="#4ade80" stroke-width="2.5" marker-end="url(#arrow-4ade80)" stroke-linejoin="round"/>
        <rect x="279.775" y="3137.5" width="35.45" height="19" rx="4" fill="#18181b" stroke="#4ade80" stroke-width="0.5"/>
        <text x="297.5" y="3150.85" text-anchor="middle" fill="#4ade80" font-size="11" font-weight="500" font-family="system-ui, sans-serif">Yes</text>
      <path d="M 585 3162 L 1165 3162 Q 1179 3162 1179 3176 L 1179 3233.6 Q 1179 3247.6 1165 3247.6 L 1147 3247.6 Q 1133 3247.6 1133 3261.6 L 1133 3376" fill="none" stroke="#f87171" stroke-width="2.5" marker-end="url(#arrow-f87171)" stroke-linejoin="round"/>
        <rect x="867.85" y="3137.5" width="28.3" height="19" rx="4" fill="#18181b" stroke="#f87171" stroke-width="0.5"/>
        <text x="882" y="3150.85" text-anchor="middle" fill="#f87171" font-size="11" font-weight="500" font-family="system-ui, sans-serif">No</text>
      <path d="M 1448.5 3452 L 1448.5 3508 Q 1448.5 3522 1434.5 3522 L 1156.5 3522 Q 1142.5 3522 1142.5 3536 L 1142.5 3592" fill="none" stroke="#5eead4" stroke-width="2.5" marker-end="url(#arrow-5eead4)" stroke-linejoin="round"/><path d="M 720 3452 L 720 3508 Q 720 3522 734 3522 L 1128.5 3522 Q 1142.5 3522 1142.5 3536 L 1142.5 3592" fill="none" stroke="#5eead4" stroke-width="2.5" marker-end="url(#arrow-5eead4)" stroke-linejoin="round"/><path d="M 280 3452 L 280 3508 Q 280 3522 294 3522 L 1128.5 3522 Q 1142.5 3522 1142.5 3536 L 1142.5 3592" fill="none" stroke="#5eead4" stroke-width="2.5" marker-end="url(#arrow-5eead4)" stroke-linejoin="round"/>
  
      <circle cx="1052.5" cy="96" r="21.32" fill="#059669" stroke="#34d399" stroke-width="2.5"/>
      <polygon points="1047.2766,88.538 1047.2766,103.462 1059.962,96" fill="white"/>
    
    <rect x="892.5" y="262" width="320" height="100" rx="10" fill="#1e1e2e" stroke="#5eead4" stroke-width="2"/>
    <text x="1052.5" y="284" text-anchor="middle" fill="#f4f4f5" font-size="14" font-weight="600" font-family="system-ui, sans-serif">Get Today&apos;s Birthday Events (Birthdays</text><text x="1052.5" y="302" text-anchor="middle" fill="#f4f4f5" font-size="14" font-weight="600" font-family="system-ui, sans-serif">calendar)</text>
    
      <rect x="900.5" y="338" width="60.199999999999996" height="18" rx="4" fill="#374151"/>
      <text x="930.6" y="350.96" text-anchor="middle" fill="#d1d5db" font-size="11" font-family="system-ui, sans-serif">System</text>
    
        <rect x="964.7" y="338" width="239.79999999999995" height="18" rx="4" fill="#1e293b" stroke="#334155" stroke-width="0.5"/>
        <text x="1084.6" y="350.96" text-anchor="middle" fill="#94a3b8" font-size="11" font-family="system-ui, sans-serif">Google Calendar (UiPath activi…</text>
      
  
      <g transform="translate(1052.5, 547)">
        <rect x="-32.4" y="-32.4" width="64.8" height="64.8" rx="4" transform="rotate(45)" fill="#d97706" stroke="#fbbf24" stroke-width="2"/>
        <text x="0" y="-9.6" text-anchor="middle" fill="white" font-size="11" font-weight="600" font-family="system-ui, sans-serif">Any Birthdays</text><text x="0" y="4.4" text-anchor="middle" fill="white" font-size="11" font-weight="600" font-family="system-ui, sans-serif">Today?</text>
      </g>
    
      <circle cx="1142.5" cy="3618" r="21.32" fill="#dc2626" stroke="#f87171" stroke-width="2.5"/>
      <rect x="1132.906" y="3608.406" width="19.188000000000002" height="19.188000000000002" rx="2" fill="white"/>
    
    <rect x="762.5" y="732" width="320" height="100" rx="10" fill="#1e1e2e" stroke="#5eead4" stroke-width="2"/>
    <text x="922.5" y="754" text-anchor="middle" fill="#f4f4f5" font-size="14" font-weight="600" font-family="system-ui, sans-serif">For Each Birthday Person</text>
    
      <rect x="770.5" y="808" width="60.199999999999996" height="18" rx="4" fill="#374151"/>
      <text x="800.6" y="820.96" text-anchor="middle" fill="#d1d5db" font-size="11" font-family="system-ui, sans-serif">System</text>
    
        <rect x="834.7" y="808" width="106.39999999999999" height="18" rx="4" fill="#1e293b" stroke="#334155" stroke-width="0.5"/>
        <text x="887.9000000000001" y="820.96" text-anchor="middle" fill="#94a3b8" font-size="11" font-family="system-ui, sans-serif">Orchestrator</text>
      
  
    <rect x="762.5" y="972" width="320" height="100" rx="10" fill="#1e1e2e" stroke="#5eead4" stroke-width="2"/>
    <text x="922.5" y="994" text-anchor="middle" fill="#f4f4f5" font-size="14" font-weight="600" font-family="system-ui, sans-serif">Lookup Contact by Full Name</text>
    
      <rect x="770.5" y="1048" width="60.199999999999996" height="18" rx="4" fill="#374151"/>
      <text x="800.6" y="1060.96" text-anchor="middle" fill="#d1d5db" font-size="11" font-family="system-ui, sans-serif">System</text>
    
        <rect x="834.7" y="1048" width="239.79999999999995" height="18" rx="4" fill="#1e293b" stroke="#334155" stroke-width="0.5"/>
        <text x="954.6" y="1060.96" text-anchor="middle" fill="#94a3b8" font-size="11" font-family="system-ui, sans-serif">Google Contacts (UiPath activi…</text>
      
  
      <g transform="translate(922.5, 1257)">
        <rect x="-32.4" y="-32.4" width="64.8" height="64.8" rx="4" transform="rotate(45)" fill="#d97706" stroke="#fbbf24" stroke-width="2"/>
        <text x="0" y="-9.6" text-anchor="middle" fill="white" font-size="11" font-weight="600" font-family="system-ui, sans-serif">Email</text><text x="0" y="4.4" text-anchor="middle" fill="white" font-size="11" font-weight="600" font-family="system-ui, sans-serif">Available</text>
      </g>
    
    <rect x="982.5" y="1442" width="320" height="100" rx="10" fill="#1e1e2e" stroke="#5eead4" stroke-width="2"/>
    <text x="1142.5" y="1464" text-anchor="middle" fill="#f4f4f5" font-size="14" font-weight="600" font-family="system-ui, sans-serif">Select Preferred Email (Personal over</text><text x="1142.5" y="1482" text-anchor="middle" fill="#f4f4f5" font-size="14" font-weight="600" font-family="system-ui, sans-serif">Home)</text>
    
      <rect x="990.5" y="1518" width="60.199999999999996" height="18" rx="4" fill="#374151"/>
      <text x="1020.6" y="1530.96" text-anchor="middle" fill="#d1d5db" font-size="11" font-family="system-ui, sans-serif">System</text>
    
        <rect x="1054.7" y="1518" width="106.39999999999999" height="18" rx="4" fill="#1e293b" stroke="#334155" stroke-width="0.5"/>
        <text x="1107.9" y="1530.96" text-anchor="middle" fill="#94a3b8" font-size="11" font-family="system-ui, sans-serif">Orchestrator</text>
      
  
    <rect x="982.5" y="1682" width="320" height="100" rx="10" fill="#1e1e2e" stroke="#5eead4" stroke-width="2"/>
    <text x="1142.5" y="1704" text-anchor="middle" fill="#f4f4f5" font-size="14" font-weight="600" font-family="system-ui, sans-serif">Generate Birthday Message in My Voice</text>
    
      <rect x="990.5" y="1758" width="60.199999999999996" height="18" rx="4" fill="#374151"/>
      <text x="1020.6" y="1770.96" text-anchor="middle" fill="#d1d5db" font-size="11" font-family="system-ui, sans-serif">System</text>
    
        <rect x="1054.7" y="1758" width="191.1" height="18" rx="4" fill="#1e293b" stroke="#334155" stroke-width="0.5"/>
        <text x="1150.25" y="1770.96" text-anchor="middle" fill="#94a3b8" font-size="11" font-family="system-ui, sans-serif">UiPath GenAI Activities</text>
      
  
      <g transform="translate(1142.5, 1967)">
        <rect x="-32.4" y="-32.4" width="64.8" height="64.8" rx="4" transform="rotate(45)" fill="#7c3aed" stroke="#a78bfa" stroke-width="2"/>
        <text x="0" y="-9.6" text-anchor="middle" fill="white" font-size="11" font-weight="600" font-family="system-ui, sans-serif">Message Policy</text><text x="0" y="4.4" text-anchor="middle" fill="white" font-size="11" font-weight="600" font-family="system-ui, sans-serif">Check</text>
      </g>
    
    <rect x="982.5" y="2152" width="320" height="100" rx="10" fill="#1e1e2e" stroke="#5eead4" stroke-width="2"/>
    <text x="1142.5" y="2174" text-anchor="middle" fill="#f4f4f5" font-size="14" font-weight="600" font-family="system-ui, sans-serif">Create Human Review Task (Message Needs</text><text x="1142.5" y="2192" text-anchor="middle" fill="#f4f4f5" font-size="14" font-weight="600" font-family="system-ui, sans-serif">Review)</text>
    
      <rect x="990.5" y="2228" width="60.199999999999996" height="18" rx="4" fill="#374151"/>
      <text x="1020.6" y="2240.96" text-anchor="middle" fill="#d1d5db" font-size="11" font-family="system-ui, sans-serif">System</text>
    
        <rect x="1054.7" y="2228" width="114.1" height="18" rx="4" fill="#1e293b" stroke="#334155" stroke-width="0.5"/>
        <text x="1111.75" y="2240.96" text-anchor="middle" fill="#94a3b8" font-size="11" font-family="system-ui, sans-serif">Action Center</text>
      
  
      <g transform="translate(1142.5, 2442)">
        <rect x="-32.4" y="-32.4" width="64.8" height="64.8" rx="4" transform="rotate(45)" fill="#d97706" stroke="#fbbf24" stroke-width="2"/>
        <text x="0" y="-9.6" text-anchor="middle" fill="white" font-size="11" font-weight="600" font-family="system-ui, sans-serif">Approved to</text><text x="0" y="4.4" text-anchor="middle" fill="white" font-size="11" font-weight="600" font-family="system-ui, sans-serif">Send?</text>
      </g>
    
    <rect x="820" y="2632" width="320" height="100" rx="10" fill="#1e1e2e" stroke="#5eead4" stroke-width="2"/>
    <text x="980" y="2654" text-anchor="middle" fill="#f4f4f5" font-size="14" font-weight="600" font-family="system-ui, sans-serif">Send Birthday Email</text>
    
      <rect x="828" y="2708" width="60.199999999999996" height="18" rx="4" fill="#374151"/>
      <text x="858.1" y="2720.96" text-anchor="middle" fill="#d1d5db" font-size="11" font-family="system-ui, sans-serif">System</text>
    
        <rect x="892.2" y="2708" width="221.89999999999998" height="18" rx="4" fill="#1e293b" stroke="#334155" stroke-width="0.5"/>
        <text x="1003.1500000000001" y="2720.96" text-anchor="middle" fill="#94a3b8" font-size="11" font-family="system-ui, sans-serif">Gmail (Integration Service)</text>
      
  
    <rect x="1288.5" y="3112" width="320" height="100" rx="10" fill="#1e1e2e" stroke="#5eead4" stroke-width="2"/>
    <text x="1448.5" y="3134" text-anchor="middle" fill="#f4f4f5" font-size="14" font-weight="600" font-family="system-ui, sans-serif">Skip Send (Rejected)</text>
    
      <rect x="1296.5" y="3188" width="60.199999999999996" height="18" rx="4" fill="#374151"/>
      <text x="1326.6" y="3200.96" text-anchor="middle" fill="#d1d5db" font-size="11" font-family="system-ui, sans-serif">System</text>
    
        <rect x="1360.7" y="3188" width="106.39999999999999" height="18" rx="4" fill="#1e293b" stroke="#334155" stroke-width="0.5"/>
        <text x="1413.9" y="3200.96" text-anchor="middle" fill="#94a3b8" font-size="11" font-family="system-ui, sans-serif">Orchestrator</text>
      
  
    <rect x="820" y="2872" width="320" height="100" rx="10" fill="#1e1e2e" stroke="#5eead4" stroke-width="2"/>
    <text x="980" y="2894" text-anchor="middle" fill="#f4f4f5" font-size="14" font-weight="600" font-family="system-ui, sans-serif">Mark Person Processed</text>
    
      <rect x="828" y="2948" width="60.199999999999996" height="18" rx="4" fill="#374151"/>
      <text x="858.1" y="2960.96" text-anchor="middle" fill="#d1d5db" font-size="11" font-family="system-ui, sans-serif">System</text>
    
        <rect x="892.2" y="2948" width="106.39999999999999" height="18" rx="4" fill="#1e293b" stroke="#334155" stroke-width="0.5"/>
        <text x="945.4000000000001" y="2960.96" text-anchor="middle" fill="#94a3b8" font-size="11" font-family="system-ui, sans-serif">Data Service</text>
      
  
    <rect x="1288.5" y="3352" width="320" height="100" rx="10" fill="#1e1e2e" stroke="#5eead4" stroke-width="2"/>
    <text x="1448.5" y="3374" text-anchor="middle" fill="#f4f4f5" font-size="14" font-weight="600" font-family="system-ui, sans-serif">Mark Person Skipped</text>
    
      <rect x="1296.5" y="3428" width="60.199999999999996" height="18" rx="4" fill="#374151"/>
      <text x="1326.6" y="3440.96" text-anchor="middle" fill="#d1d5db" font-size="11" font-family="system-ui, sans-serif">System</text>
    
        <rect x="1360.7" y="3428" width="106.39999999999999" height="18" rx="4" fill="#1e293b" stroke="#334155" stroke-width="0.5"/>
        <text x="1413.9" y="3440.96" text-anchor="middle" fill="#94a3b8" font-size="11" font-family="system-ui, sans-serif">Data Service</text>
      
  
      <g transform="translate(980, 3162)">
        <rect x="-32.4" y="-32.4" width="64.8" height="64.8" rx="4" transform="rotate(45)" fill="#d97706" stroke="#fbbf24" stroke-width="2"/>
        <text x="0" y="-9.6" text-anchor="middle" fill="white" font-size="11" font-weight="600" font-family="system-ui, sans-serif">Next Birthday</text><text x="0" y="4.4" text-anchor="middle" fill="white" font-size="11" font-weight="600" font-family="system-ui, sans-serif">Person?</text>
      </g>
    
    <rect x="560" y="3352" width="320" height="100" rx="10" fill="#1e1e2e" stroke="#5eead4" stroke-width="2"/>
    <text x="720" y="3374" text-anchor="middle" fill="#f4f4f5" font-size="14" font-weight="600" font-family="system-ui, sans-serif">Loop to Next Person</text>
    
      <rect x="568" y="3428" width="60.199999999999996" height="18" rx="4" fill="#374151"/>
      <text x="598.1" y="3440.96" text-anchor="middle" fill="#d1d5db" font-size="11" font-family="system-ui, sans-serif">System</text>
    
        <rect x="632.2" y="3428" width="106.39999999999999" height="18" rx="4" fill="#1e293b" stroke="#334155" stroke-width="0.5"/>
        <text x="685.4000000000001" y="3440.96" text-anchor="middle" fill="#94a3b8" font-size="11" font-family="system-ui, sans-serif">Orchestrator</text>
      
  
      <circle cx="1133" cy="3402" r="21.32" fill="#dc2626" stroke="#f87171" stroke-width="2.5"/>
      <rect x="1123.406" y="3392.406" width="19.188000000000002" height="19.188000000000002" rx="2" fill="white"/>
    
    <rect x="380" y="2152" width="320" height="100" rx="10" fill="#1e1e2e" stroke="#5eead4" stroke-width="2"/>
    <text x="540" y="2174" text-anchor="middle" fill="#f4f4f5" font-size="14" font-weight="600" font-family="system-ui, sans-serif">No Action (No Email Found)</text>
    
      <rect x="388" y="2228" width="60.199999999999996" height="18" rx="4" fill="#374151"/>
      <text x="418.1" y="2240.96" text-anchor="middle" fill="#d1d5db" font-size="11" font-family="system-ui, sans-serif">System</text>
    
        <rect x="452.2" y="2228" width="106.39999999999999" height="18" rx="4" fill="#1e293b" stroke="#334155" stroke-width="0.5"/>
        <text x="505.4" y="2240.96" text-anchor="middle" fill="#94a3b8" font-size="11" font-family="system-ui, sans-serif">Orchestrator</text>
      
  
    <rect x="380" y="2392" width="320" height="100" rx="10" fill="#1e1e2e" stroke="#5eead4" stroke-width="2"/>
    <text x="540" y="2414" text-anchor="middle" fill="#f4f4f5" font-size="14" font-weight="600" font-family="system-ui, sans-serif">Mark Missing Email</text>
    
      <rect x="388" y="2468" width="60.199999999999996" height="18" rx="4" fill="#374151"/>
      <text x="418.1" y="2480.96" text-anchor="middle" fill="#d1d5db" font-size="11" font-family="system-ui, sans-serif">System</text>
    
        <rect x="452.2" y="2468" width="106.39999999999999" height="18" rx="4" fill="#1e293b" stroke="#334155" stroke-width="0.5"/>
        <text x="505.4" y="2480.96" text-anchor="middle" fill="#94a3b8" font-size="11" font-family="system-ui, sans-serif">Data Service</text>
      
  
    <rect x="380" y="2632" width="320" height="100" rx="10" fill="#1e1e2e" stroke="#5eead4" stroke-width="2"/>
    <text x="540" y="2654" text-anchor="middle" fill="#f4f4f5" font-size="14" font-weight="600" font-family="system-ui, sans-serif">Return to Loop Control</text>
    
      <rect x="388" y="2708" width="60.199999999999996" height="18" rx="4" fill="#374151"/>
      <text x="418.1" y="2720.96" text-anchor="middle" fill="#d1d5db" font-size="11" font-family="system-ui, sans-serif">System</text>
    
        <rect x="452.2" y="2708" width="106.39999999999999" height="18" rx="4" fill="#1e293b" stroke="#334155" stroke-width="0.5"/>
        <text x="505.4" y="2720.96" text-anchor="middle" fill="#94a3b8" font-size="11" font-family="system-ui, sans-serif">Orchestrator</text>
      
  
    <rect x="380" y="2872" width="320" height="100" rx="10" fill="#1e1e2e" stroke="#5eead4" stroke-width="2"/>
    <text x="540" y="2894" text-anchor="middle" fill="#f4f4f5" font-size="14" font-weight="600" font-family="system-ui, sans-serif">Continue Loop Check</text>
    
      <rect x="388" y="2948" width="60.199999999999996" height="18" rx="4" fill="#374151"/>
      <text x="418.1" y="2960.96" text-anchor="middle" fill="#d1d5db" font-size="11" font-family="system-ui, sans-serif">System</text>
    
        <rect x="452.2" y="2948" width="106.39999999999999" height="18" rx="4" fill="#1e293b" stroke="#334155" stroke-width="0.5"/>
        <text x="505.4" y="2960.96" text-anchor="middle" fill="#94a3b8" font-size="11" font-family="system-ui, sans-serif">Orchestrator</text>
      
  
      <g transform="translate(540, 3162)">
        <rect x="-32.4" y="-32.4" width="64.8" height="64.8" rx="4" transform="rotate(45)" fill="#d97706" stroke="#fbbf24" stroke-width="2"/>
        <text x="0" y="-9.6" text-anchor="middle" fill="white" font-size="11" font-weight="600" font-family="system-ui, sans-serif">Next Birthday</text><text x="0" y="4.4" text-anchor="middle" fill="white" font-size="11" font-weight="600" font-family="system-ui, sans-serif">Person? (after</text>
      </g>
    
    <rect x="120" y="3352" width="320" height="100" rx="10" fill="#1e1e2e" stroke="#5eead4" stroke-width="2"/>
    <text x="280" y="3374" text-anchor="middle" fill="#f4f4f5" font-size="14" font-weight="600" font-family="system-ui, sans-serif">Loop to Next (from missing email path)</text>
    
      <rect x="128" y="3428" width="60.199999999999996" height="18" rx="4" fill="#374151"/>
      <text x="158.1" y="3440.96" text-anchor="middle" fill="#d1d5db" font-size="11" font-family="system-ui, sans-serif">System</text>
    
        <rect x="192.2" y="3428" width="106.39999999999999" height="18" rx="4" fill="#1e293b" stroke="#334155" stroke-width="0.5"/>
        <text x="245.39999999999998" y="3440.96" text-anchor="middle" fill="#94a3b8" font-size="11" font-family="system-ui, sans-serif">Orchestrator</text>
      
  
</svg>